<svg width="400" height="120" xmlns="http://www.w3.org/2000/svg">
  <path fill="#003f87" d="M0 112.622h2.676V0H0z"/>
  <path d="M66.315 18.711c.46 1.254 1.358 1.714 2.048 1.38-1.547-.167-.292-2.823-2.278-2.823-.126 0-.23.02-.335.043-.334-.355-.71-.501-1.275-.501-.836 0-2.3.815-2.3 2.488 0 3.596 4.202 3.93 4.202 7.108 0 .94-.71 1.505-1.505 1.505-.69 0-1.254-.773-1.86-2.028-.272-.585-.879-1.38-1.527-2.237.188.146.397.23.606.23.23 0 .44-.062.586-.209a.83.83 0 0 0 .25-.564v-.043c0-.293-.124-.586-.334-.816-.23-.23-.522-.376-.836-.376a.712.712 0 0 0-.564.21.716.716 0 0 0-.251.564v.02c0 .125.02.25.062.376-.899-1.17-1.735-2.341-1.735-2.969 0-.564.376-1.045.857-1.63.02 0 .167.083.167.083l.125-.146c.167-.167.523-.564 1.234-1.338l.23-.23-.46-.355c.125-.272.23-.565.293-.9.146.586.438.963.857.837-.272-.585.271-1.4-.084-2.864.335.564.837.857 1.192.753-.92-.816.272-1.966-.94-3.743.396.126.668.043.835-.146-1.087-.146-.585-1.547-2.53-2.07.481-.083.774-.355.69-.606-.5.355-.961-.69-2.634-.67-.104-.626-.69-1.274-1.337-1.609.125.502 0 .94-.126 1.296l-5.477-5.373c-.146-.146-.23-.188-.272-.125-.062.063-.043.146.043.272l4.704 5.874c-.355.126-.71.272-1.066.418-.23.063-.397.314-.397.607-.878.418-1.652.961-2.028 1.317-.293.25-.523.313-.25.899.083.23-.21.794.459.376.46-.272 1.463-.815 1.61-.46.083.167-.418.418-.753.544-.355.125-.732.397-.669.523.062.146.334 0 .334.146.02.146.146.292.272.292.146 0 .314-.292.418-.209.125.105-.043.753-.167.9.544-.063.878-.565.9-.962 0-.397.124-.482.208-.544.084-.063.167.418.063.71.271-.062.564-.417.523-1.107.146-.126.292-.21.397-.21.187 0 .543.502 1.045.502.92 0 1.442-.753 1.505-1.108.043-.293.02-.564-.125-.774.313.272.418.69.418 1.004 0 1.317-2.32 1.923-3.262 2.843-.043.02-.083.063-.125.105l-1.087-.44-.062.252s-.02.062-.063.209c-.125.376-.355 1.15-.501 1.589l-.063.188.105.062c-.648.858-1.17 1.82-1.296 2.802a8.685 8.685 0 0 0-.795-.71.812.812 0 0 0 .063-.314 1.118 1.118 0 0 0-.251-.774.824.824 0 0 0-.502-.25.81.81 0 0 0-.543.208l-.084.084a.428.428 0 0 1-.125-.084c-.355-.271-.794-.606-1.066-.899-.126-.125-.23-.188-.48-.188-.084 0-.314-.02-.481-.02-.167 0-.251.125-.44.293-.083.062-.334.271-.627.48.147.147.272.293.397.418.063.084.147.167.21.251.083-.062.146-.104.188-.146a.597.597 0 0 1 .397-.125c.146 0 .355.125.48.313.105.146.983 1.317 1.715 2.133a1.05 1.05 0 0 0-.23.083c-.314.125-1.025.105-1.338.084-.314-.043-.355-.126-.586.23a4.82 4.82 0 0 1-.292.397c-.105.125-.188.271.043.648.313.543 1.129 1.986 1.4 2.634.252.648.565.753 1.088.962.501.209 1.38.71 1.463.815l.043-.502c-.146-.146-.648-.334-.815-.396-.188-.063-.23-.147-.02-.147.23 0 .836.23 1.275.397-.146-.48-.606-1.024-.878-1.317-.376-.104-.731-.104-.899.02.02.084-.062.23-.209.23-.125 0-.23-.125-.188-.272.043-.146.272-.188.23-.46-.062-.292-.397-.334-.627-.355-.314-.46-.67-1.108-.836-1.38-.167-.271-.063-.418.043-.501.272-.23.836.104 1.944.188.376.02.878.043 1.38.063.146 1.296.648 2.509 2.446 2.969.878.209 1.798.857 2.112 1.693-3.596-.063-4.16 1.338-4.16 2.655 0 1.505 1.274 1.422 1.274 2.55 0 .983-3.03 1.38-3.93 1.506-.773.125-1.212.292-1.589.669-.376.376-.752.732-1.421 1.4 0 0 .292.063.564.044l.523-.649c.146-.23.25-.418.355-.397.084.02.02.188-.083.418l-.418.711c1.756.126 1.881-.523 1.881-.794 0-.272-.439-.46-.188-.627.251-.167.46-.063.67.188.208.23.27.439.773.25 0 0 3.846-1.609 4.327-1.818.44-.21.314-.397.063-.606-.293-.251-.335-.628-.335-1.046 0-1.15.69-1.505 1.945-1.484-.02.188-.02.376-.02.544 0 1.84 2.738 3.616 3.491 3.616.334 0 .773-.25.815.837.02.815.167 1.38.02 2.32-.146.941-.418 1.066-.961 1.464-.565.397-1.087 1.63-1.338 1.902.25.147.522.167.731-.418.167-.501.376-.857.586-.982-.21.543-.376 1.358-.48 1.588.71.126 1.839-.501 1.839-1.003 0-.502-.397-.46-.397-.795 0-.146.188-.313.397-.313.293 0 .501.23.522.334.314-.167.502-.48.502-1.191-.02-.293-.02-.586-.043-.878a.4.4 0 0 1 .062.104.85.85 0 0 0 .648.355c.25.02.523-.043.774-.209.271-.188.46-.439.522-.732 0-.062.02-.125.02-.188a.766.766 0 0 0-.125-.418c-.125-.188-.313-.293-.523-.355-.292-.063-.606.02-.899.209-.25.146-.439.397-.501.669-.063-1.004-.125-1.923-.105-2.3.044-.564.063-.815-.125-.899-.188-.083-.397.23-.669.23-.25 0-1.066-.752-1.066-1.526 0-.794.836-1.798.815-2.885-.02-.334.189-.501.314-.209.167.376.418.878.773 1.275-.23 1.36 1.276 2.676 2.488 1.694-.606.083-1.024-.44-1.275-.983.104.02.21.02.313.02h.189c.439.523 1.798.481 2.153-.836-.23.272-.732.481-1.087.439.501-.397.794-1.045.794-1.756 0-3.429-4.181-3.826-4.181-6.962 0-1.15 1.025-1.902 1.714-1.902.272 0 .481.083.649.209-.272.271-.418.69-.377 1.191.105 2.467 4.14 2.342 4.182 3.533.46-1.797-2.551-1.233-2.655-3.658m-10.746-9.47c.188-.377 0-.941.69-.941.334 0 .627.334 1.024.46-.648.062-1.234.208-1.714.48m-3.68 7.568a.798.798 0 0 1-.23.501.396.396 0 0 1-.25.105c-.23-.02-.419-.293-.419-.606v-.043a.69.69 0 0 1 .21-.502c.062-.043.146-.104.271-.104.125.02.21.083.251.146a.805.805 0 0 1 .167.501m11.917 17.353a.798.798 0 0 1 .376-.502c.188-.125.418-.188.606-.146.083.02.21.063.293.188.083.125.083.25.062.355-.043.188-.188.376-.376.502-.334.23-.753.209-.899-.043a.452.452 0 0 1-.062-.356m-2.51-11.498c0-.105.02-.23.126-.335a.565.565 0 0 1 .335-.104c.188 0 .418.104.564.272.167.167.25.397.25.585a.39.39 0 0 1-.145.314.436.436 0 0 1-.314.125.79.79 0 0 1-.564-.293.817.817 0 0 1-.251-.564m-6.836-7.777c.188-.607.543-1.82.543-1.82l.648.252c-.188.062-.418.25-.606.439a.673.673 0 0 0 .564-.043l-.25.627c-.063-.105-.23-.335-.419-.376-.125.523.189.71.44.836.375.188.627.23.731.043.125-.21-.125-.522-.46-.376-.02-.335.167-.523.376-.523.167 0 .314.167.356.376-.02-.543.23-.961.731-1.108.189.523.044.878-.355 1.255.21-.084.439-.063.523.083.125.167.083.418-.21.586-.062-.356-.46-.376-.585-.146-.104.209.062.438.418.627.418.23.753.083.962-.272-.126-.043-.376-.02-.586.125l.418-.794a.72.72 0 0 0 .272.46c.062-.167.146-.481.02-.753l.92.522c-.314.02-.544.251-.648.397a.724.724 0 0 0 .522 0l-.46.774c0-.272-.083-.48-.209-.586-.188.377-.146.732.251.983.355.21.627.25.774.043.125-.21-.105-.544-.44-.439 0-.334.19-.501.398-.48.188 0 .313.209.355.438.125-.543.355-.857.899-.961.125.523-.125.94-.606 1.191.209-.062.418-.02.501.126.125.187.063.438-.25.585-.044-.355-.44-.418-.565-.21-.105.19.062.377.418.628.23.146.543.313.92-.043-.125-.146-.397-.188-.523-.188l.418-.523c0 .21.125.418.25.502.063-.251.105-.544.084-.732l.523.418s-.858.92-1.276 1.4zm5.644 14.237c-.23.334-.627.439-.878.272-.25-.188-.272-.607-.043-.92.23-.314.606-.44.878-.251.25.167.272.585.043.899m1.652-2.592c-.23.313-.627.438-.878.25-.251-.187-.272-.585-.044-.92.23-.313.607-.417.858-.25.271.188.271.585.062.92m-10.144-6.374a.944.944 0 0 0-.48.418c-.21.44.062 1.004.606 1.276.293.146.627.167.899.062a.824.824 0 0 0 .48-.397.917.917 0 0 0 .02-.627 1.296 1.296 0 0 0-.627-.669c-.292-.125-.627-.167-.899-.062m.272 1.358c-.355-.167-.543-.522-.418-.794a.518.518 0 0 1 .251-.23.884.884 0 0 1 .648.063c.21.104.355.271.418.46a.37.37 0 0 1 0 .334.4.4 0 0 1-.272.23.83.83 0 0 1-.627-.063m6.566 9.952c-.21.188-.335.501-.335.836v.02c0 .314.105.627.314.815a.852.852 0 0 0 .564.272.78.78 0 0 0 .565-.25c.209-.189.334-.502.355-.837a1.34 1.34 0 0 0-.23-.753.855.855 0 0 0-.648-.355.825.825 0 0 0-.586.251m.544 1.589a.455.455 0 0 1-.313-.167c-.126-.125-.21-.355-.21-.585a.82.82 0 0 1 .23-.586.5.5 0 0 1 .335-.146c.292.02.523.355.501.752 0 .23-.083.46-.23.586a.445.445 0 0 1-.313.146m-6.606-18.899c-.418.335-.565.9-.272 1.276.272.355.857.376 1.296.043.23-.188.376-.46.418-.711.02-.21-.02-.418-.146-.565a.707.707 0 0 0-.501-.271c-.251-.043-.544.043-.795.23m-.062.815c0-.167.104-.376.293-.522a.714.714 0 0 1 .522-.167c.084 0 .188.043.272.146a.38.38 0 0 1 .063.292.7.7 0 0 1-.293.46c-.272.21-.627.23-.795.02a.41.41 0 0 1-.062-.23m7.776 18.815a.822.822 0 0 0-.355.523c-.043.23.043.48.23.69.167.188.418.334.69.376.272.043.564.02.794-.105a.832.832 0 0 0 .44-.585c.083-.481-.314-.962-.92-1.066-.314-.063-.649 0-.879.167m.628 1.233c-.397-.062-.69-.376-.628-.648a.446.446 0 0 1 .188-.292.806.806 0 0 1 .627-.126c.377.084.628.335.628.607v.062c-.044.293-.418.48-.816.397m4.579-2.529a1.401 1.401 0 1 0 2.802 0 1.401 1.401 0 0 0-2.802 0m.355 0c0-.564.48-1.045 1.045-1.045.586 0 1.046.48 1.046 1.045s-.46 1.045-1.046 1.045c-.564 0-1.045-.48-1.045-1.045m-32.049-7.986c.125-.355-.523-.753-.585-1.234-.063-.501-.02-.982-.586-1.651-.564-.648-2.508-2.718-3.094-3.387.167 0 .502-.083.857.251.21.188.628.585 1.025.983.501-1.317 1.15-2.3 2.049-3.325.125-.125.23-.25.355-.376-.335.105-.857.189-1.15.376-.02-.564.02-1.024-.376-1.38.146-.815.02-1.776-1.756-2.947.92.209 1.442 1.045 2.153.418-.627-.02-.648-1.4-2.906-2.53.857-.02 1.526 1.38 2.53.586-.941-.126-1.255-1.798-2.948-2.321.585.084 1.192.376 1.693-.313-.585.125-.92-.418-1.568-.46.251-.732.189-1.192-.062-1.735-.439.02-.899.167-1.233.438-.044-.418-.46-.438-.837-.397.02.167.105.418-.104.46-.293.063-1.296.335-2.09.627-.774.314-1.673.858-1.924 1.046-.167.104-.293-.147-.397-.272-.272.23-.544.543-.334.857-.44.02-.92.147-1.318.46 0 .501.418 1.003 1.046 1.275-1.067 1.045-.105 2.007-1.046 2.906 1.318.063 1.088-1.756 1.736-2.007-.063 1.275-.774 1.505-.774 2.864 0 .753.439 1.526.043 2.028 1.087-.313.795-2.718 1.484-3.428.126.396.043.815-.083 1.212-.397 1.129.043 2.655-.565 3.157 1.108-.104 1.255-1.882 2.154-2.55-.774 1.61-1.59 5.017-2.76 6.731-1.881 2.55-2.99 5.666-4.746 5.666-.752 0-1.338-.46-1.338-1.443 0-2.885 4.976-4.892 4.976-7.986 0-1.359-1.108-1.902-1.819-1.902-.48 0-1.045.25-1.526.648a1.275 1.275 0 0 0-.585-.146c-1.756 0-1.296 3.156-2.823 3.135.607.335 1.652-.313 2.28-1.212-.273 2.049-3.22 1.505-2.99 3.972.418-1.923 5.122-1.652 5.122-4.578 0-.314-.167-.607-.418-.816.376-.23.69-.313 1.003-.313.565 0 1.087.418 1.087 1.254 0 2.593-4.954 4.767-4.954 7.945 0 .543.146 1.003.418 1.338-.356.146-.711.083-1.004-.272-.043.836 1.129 1.338 1.86.94.168.044.356.084.523.105-.23.606-.983.773-1.38.753 1.213.961 3.324-.293 3.22-1.38.961-.774 1.568-2.112 2.258-2.969a5.404 5.404 0 0 0-.105.585c-.71 1.297-1.38 2.446-1.568 4.16-.146 1.422-.857 2.698-1.86 2.698-.23 0-.586-.293-.753-.147-.313.272-.02.544-.02.816 0 .397-.773.815-.773 2.048 0 .565.334 1.255.209 1.61.313-.146.731-.69.92-1.38.334 1.652-.711 1.568.043 3.053.104-.502.585-.69.878-.502.292.21.146.355-.063.565-.23.23-.418 1.317.564 1.254-.167-.125-.187-.418.314-.523.69-.125.878.188 1.61.188.46 0 .585-.606.94-.606.356 0 .356.293.23.502.586-.167.69-.481.69-.816 0-.313-.271-.523-.062-.648.209-.125.878.02.606.565.355-.063.522-.314.522-.732s-.48-.669-.92-.585c-.083-.272-.48-.418-.836-.418-.815 0-.69.648-1.233.648-.9 0-1.756-1.171-1.756-3.115 0-1.046 1.129-1.317 1.923-1.652.795-.334 2.174-1.213 3.01-2.613.67-1.087.69-2.3.607-3.722 1.108.649 1.254 1.568 1.254 2.237 0 .878-.46 1.234-.815 1.401-.314.125-.397.084-.439.251-.043.23.104.355.25.418.398.21.314.606.44 1.024.104.418.48 1.088 1.108 1.568.062-.271.043-.69 0-1.212.878.418.188 2.153 1.86 2.153-.313-.188-.23-.648-.062-.71.188-.063.418.125.732.564.334.46.23.418 1.024.418.795 0 .44-.272.857-.272.418 0 .397.48.167.836.711-.209.92-.731.67-1.296.627-.334.961.146 1.045.48.627-.606 0-1.358-.48-1.4.02-.23-.19-.48-.44-.48-.272-.02-.522-.044-.794-.02-.293.02-.46.438-.795.438-1.045 0-3.115-1.902-3.115-2.738 0-.816 1.986-1.318 1.986-2.593 0-1.672-1.651-2.237-3.031-3.303.501-.544 1.923-.69 2.739-.293.104-.46.397-.334.501-1.15.293.711 0 1.318.293 1.61.23-.334.836-.272.794-1.15.167.544-.23 1.38.167 1.736.084-.44.356-.523.523-.523.167 0 .314.125.314.376 0 .669-.837.355-.837 1.108 0 .313.418.439.418.627 0 .21-.334.523-.731.272.125.272.397.543.731.543.377 0 .753-.292.9-.669.209.481.062 1.004-.293 1.067.376.188 1.233.02 1.129-1.087.48.083.731.417.46 1.003.396-.104.752-.293.752-.732 0-.313-.355-.418-.188-.836M24.213 9.47c-.46.043-.439-.397-1.233-.585.543-.125 1.275-.397 1.902-.648.125.523-.104 1.17-.669 1.233m3.22 3.408c-.586.251-1.046-.272-1.15-.606-.126-.355-.21-.648-.084-.774.251-.25.335-.46.188-.752-.166-.376-.543-.189-.961-.105.188-.334.209-.585-.063-.543-.313.02-.313.522-.48.48-.167-.062-.084-.355-.084-.501.02-.23.146-.293.355-.397l1.694-.627c.23-.084.376-.126.523.02.104.104.376.25.292.418-.083.167-.439-.21-.69 0-.209.146-.02.313.356.418-.356.23-.753.355-.628.752.105.314.293.397.649.397.188 0 .334.293.48.607.168.334.23.94-.396 1.212m.104-4.725c-.46.356-1.066.043-1.338-.418.627-.271 1.338-.543 1.84-.857-.46.69-.146 1.004-.502 1.276m-1.03-4.286c.126.21.168.293.168.46a1.099 1.099 0 0 1-.335-.313l.063.752c.104-.125.167-.23.272-.271-.02.501-.21.69-.376.731-.21.043-.377-.104-.397-.25-.044-.23.146-.356.334-.168.043-.438-.334-.438-.48-.25.188-.44.104-.732-.272-.962-.251.418-.147.669.167.982-.293-.146-.565.105-.314.44.062-.293.314-.21.376.02.063.188-.146.438-.46.543-.46.146-.606-.146-.731-.418.104-.063.334-.043.606.125l-.23-.731a.738.738 0 0 1-.439.46c-.02-.23.146-.649.146-.649l-.899.355s.418.189.565.356c-.189.083-.376.104-.648 0l.376.69c.062-.314.209-.502.334-.523.104.272.188.586-.23.795-.313.167-.627.125-.732-.063-.104-.21.02-.439.272-.272-.043-.418-.418-.418-.523-.104 0-.439-.104-.69-.585-.815-.104.438.043.71.48.878-.25-.02-.5.23-.166.522 0-.271.23-.292.355-.125a.344.344 0 0 1-.105.46c-.146.083-.418.083-.794-.25.125-.044.23-.021.397 0l-.481-.586c.02.209.02.355-.02.46-.105-.126-.147-.21-.188-.44l-.377.314c.356.21.753.544 1.234 1.213.501-.314 1.421-.753 1.986-.983.564-.23 1.505-.564 2.09-.69-.125-.794-.062-1.317.044-1.714zm-3.762-1.003.272.564.313-.397c.02 0 .043.02.043.02.043.189.043.523.043.711 0 .23.188.418.418.418a.42.42 0 0 0 .188-.794c-.167-.125-.334-.292-.46-.418.02-.02.02-.043.02-.062l.544.062-.21-.585-.417.355c0-.02 0-.02-.02-.02l-.02-.606-.565.209.376.46c-.02 0-.02.02-.02.043zm2.07.439c.125-.125.125-.334 0-.439a.31.31 0 0 0-.46-.02.328.328 0 0 0 0 .46.295.295 0 0 0 .46 0m.731-.545a.328.328 0 0 0 0-.46.328.328 0 0 0-.46 0 .328.328 0 0 0 0 .46.328.328 0 0 0 .46 0m.857.147a.328.328 0 0 0 0-.46.328.328 0 0 0-.46 0 .328.328 0 0 0 0 .46.328.328 0 0 0 .46 0m.084.69c.125.125.314.125.46 0a.328.328 0 0 0 0-.46c-.146-.125-.355-.125-.46 0a.295.295 0 0 0 0 .46m-3.7.606a.33.33 0 0 0 .334-.334c0-.167-.146-.314-.334-.314a.321.321 0 0 0-.314.314c0 .188.146.334.314.334m-.858.042c.189 0 .335-.125.335-.314a.33.33 0 0 0-.335-.334c-.167 0-.313.147-.313.334 0 .189.146.314.313.314m-.188.397c0-.188-.146-.334-.313-.334a.33.33 0 0 0-.335.334c0 .167.147.313.335.313a.322.322 0 0 0 .313-.313m.126.857a.344.344 0 0 0-.335-.334c-.167 0-.313.167-.313.334 0 .188.146.314.313.314.188 0 .335-.126.335-.314m21.659 23.31c0 .02.043.044.083.063.523.146 1.108-.23 1.422-.146-.397-.146-.67.104-1.046.02.23 0 .46-.043.481-.104-.188.104-.69-.084-.899.043 0 .02-.02.02-.043.043-.146.02-.293.125-.293.23 0 .355 1.317.083 1.317.188 0 .083-.25.188-.606.188-.25 0-.71-.188-1.296-.043.062-.104.167-.25.125-.313.043-.02.063-.063.063-.084-.02-.043-.044-.043-.084-.063.02-.02 0-.043-.02-.062 0 0-.02-.043-.02-.063a.323.323 0 0 0-.125-.062c-.043-.043-.084-.043-.105-.043h-.062c-.043 0-.062 0-.062.043a.165.165 0 0 0-.084-.043c-.02.043-.043.083-.02.146-.043 0-.104.104-.146.083a.2.2 0 0 0 .043.063c-.02.062-.043.146-.083.146.02.02.043.043.043.063-.02.083-.043.23-.02.313-.084-.083-.21-.271-.272-.313-.083-.063-.083-.104-.083-.167 0-.063.02-.125.02-.188 0 0-.02-.043-.02-.063a.111.111 0 0 0-.105-.062c.02.02.043.02.043.062 0 .02-.02.043-.02.043-.02.02-.02.043 0 .063v.04c0 .02 0 0 0 0-.02-.043-.043-.104-.083-.125h-.043c0-.043-.043-.084-.105-.02.02 0 .044 0 .044.02v.043c-.02.043.02.062.083.062 0 0 .02 0 .02.02v.02c-.104-.043-.146 0-.146.043v.043c-.02.02-.02.063.02.084 0 0 0-.043.02-.043h.02l.02.02s.02 0 .062-.02c.02 0 .02 0 .044.02-.063.063-.063.125.02.125l.02.02c-.02.105-.167.084-.147-.02-.083.126.063.23.167.167 0-.02 0-.02 0 0s.02.043.044.043c0-.02 0-.02.02-.02 0 .02.02.063.062.063 0-.02 0-.043.02-.043 0 0-.02.167.146.272.02.083.104.125.167.125.043.062.084.125.063.125-.02 0-.21-.02-.251 0-.044.02-.105.043-.167.063h-.02.02c-.063 0-.105 0-.126-.043-.02-.02-.02-.043-.043-.084-.02-.02-.043-.043-.062-.043h-.043c-.02-.02-.084-.043-.105-.02.02 0 .043.02.063.063-.02 0-.02.02-.02.02-.02.02 0 .062.104.104 0 0 .02 0 0 .02-.02 0-.043 0-.062-.02-.044-.02-.044-.083-.105-.043l-.02.02s0-.02-.02-.02c-.043 0-.125.063-.083.125 0-.02.02-.043.062-.062v.043c.02.062.043.104.146.02.02 0 .02.02.02.02-.02.043-.104.083-.043.125 0 0 0 .02.02.02v.02c-.02.063.062.105.104.105-.02-.02-.062-.043-.043-.105 0 .02.02.02.043.02.044-.02.02-.104.044-.125.02 0 .02 0 .02.02s.02.084.083.084c.062-.02.104-.063.083-.105h.02c.02.02.02.043.02.063.02 0 .044-.02.044-.043.02.02.02.084-.02.125.02-.02.083-.043.104-.125.02.02.02.02.02.043.043 0 .083 0 .146-.02v.02c0 .02 0 .063.02.063 0 0 0-.043.02-.043s0 .083.043.104c.02-.167.105-.083.21-.167v.02c0 .02-.02.02-.044.043.043 0 .167-.043.167-.104 0-.02.063-.084.084-.293h.062c.125 0 .188-.104.334-.125-.043.043-.043.146-.043.21 0 .062.105.166.126.187-.044.02-.084.02-.105.043-.104.063-.104-.188-.23-.125-.02 0-.043.02-.043.02-.043 0-.125.063-.104.105.02-.02.043-.043.083-.043v.02c0 .02 0 .043.043.043.02 0 .02-.02.043-.02l.02.02c0 .043-.167-.02-.125.104 0 0 .02.02.02.043 0 .02.02.063.084.043 0 0-.02-.02-.02-.043h.02c.02 0 .02 0 .02-.02.02 0 .02 0 .02.02v.063c0 .043.062.084.125.043 0 0-.043-.02-.063-.043h.044v-.043c0-.02.02-.02.02-.02h.02c.02 0 .02 0 .043.02 0 .02.043.043.083.02.084-.02.02-.083.084-.104h.043c.062.02.125.02.125 0 .02-.043.02-.146-.062-.188-.02-.02.062-.272-.125-.397.083.02.376.063.438 0 .084.02.188.063.188.083.02.02.02.043 0 .063-.083.043-.062.063-.104.084h-.02c-.02-.02-.043-.063-.062-.063-.044-.02-.063-.02-.063 0-.043-.02-.104 0-.125.043.02 0 .043-.02.083 0v.02s0 .02.02.043c-.043 0-.125 0-.104.043v.043c-.02.02-.043.063-.02.104 0-.02.02-.043.062-.062 0 .02 0 .02.02.043.02.02.063-.043.105-.043.02 0 .02.02 0 .02-.043.02-.084.043-.063.083 0 0 0 .02.02.02-.02.044-.02.084.044.105v-.063h.043c.083-.043.043-.104.062-.125.043-.043.084.043.146-.02.02 0 .02-.043.02-.063v-.02c.02.043.02.063.063.043-.044-.062 0-.083.02-.104 0 0 .02-.02.02 0 .02 0 .062-.02.104-.063-.043.02-.146-.043-.083-.062.083-.043.104-.084.062-.126-.062-.104-.21-.104-.21-.209h.126c.439 0 .732-.125.732-.271-.02-.293-1.36.02-1.36-.189 0-.062.084-.125.19-.146m-.983.043c.02.02.104.043.146.063-.063 0-.044.043-.084.043a.111.111 0 0 1-.062-.105m-.084-.043c-.02.02-.062.063-.104.02-.02-.042 0-.042-.02-.104.02.02.104.063.125.084m-.146.292c.02-.02.02-.043.043-.043.02 0 .044 0 .044-.02.02-.043-.02-.062-.044-.062.044-.02.044-.02.044-.043-.02-.02-.063.02-.063 0s.02-.02.02-.043h.043l.126.062c.02.02.02.02.02.043v.043c-.02 0-.02-.043-.044-.043-.02-.02-.02 0 0 .043-.043-.02-.062-.043-.083 0 0 .02 0 .043.02.063 0 0 0 .02-.02.062 0 .02-.043.063-.084.043-.043-.02-.043-.083-.02-.104m1.635-2.151c.02.02.043.043.104.063.502.146 1.108-.251 1.4-.146-.396-.147-.647.104-1.044.02.23 0 .48-.063.48-.126-.166.126-.668-.062-.877.063-.02 0-.044.02-.044.02-.292 0-.522 0-.522.188 0 .397 1.087.167 1.422.167.334 0 .292.02.292.084 0 .104-.376.125-.585.125-.272 0-1.17-.146-1.694-.043.044-.083.126-.188.084-.272.043-.02.083-.043.083-.083-.02-.043-.062-.043-.104-.063.02-.02 0-.043-.02-.062l-.02-.063a.32.32 0 0 0-.125-.083c-.063-.043-.084-.043-.125-.043l-.063.02c-.02-.02-.062-.02-.062.02a.162.162 0 0 0-.105-.043.185.185 0 0 0 0 .146c-.062 0-.104.125-.146.125.02.02.02.043.044.043-.044.063-.063.167-.105.167.02.02.043.02.043.043 0 .043-.02.104-.02.147l-.043-.02h-.02c-.062 0-.104 0-.209-.063-.083-.043-.083-.084-.083-.167 0-.063.02-.125.02-.188 0-.02 0-.043-.02-.063-.02-.043-.063-.083-.105-.062.02 0 .043.02.043.062l-.02.02c-.02.02-.02.063 0 .084v.04c0 .02-.02.02-.02 0 0-.043-.02-.125-.083-.125h-.02c0-.063-.062-.104-.125-.043.02 0 .043.02.043.02v.063c0 .043.043.062.083.062.02 0 .02.02.02.02v.02c-.083-.042-.125 0-.125.044v.043c-.043.02-.043.062.02.104 0-.02-.02-.043.02-.043v-.02l.02.02c.02.02.02 0 .063 0 0-.02 0-.02.02-.02 0 .02.02.02.02.02.02.02.02.02 0 .02-.063.063-.044.125.043.125v.02c0 .126-.147.105-.147-.02-.083.125.063.23.189.167 0 .02.02.043.043.043 0 0 0-.02.02-.02 0 .043.02.084.062.084 0-.02 0-.043.02-.043s.02-.063.147.02c.02.02.02.043.062.062l.083-.02c0 .063.02.188 0 .188s-.167-.02-.23 0c-.062.063-.25.126-.313.043-.02-.02-.02-.062-.043-.083-.02-.043-.043-.063-.063-.063h-.043c-.02-.02-.083-.02-.125 0 .02 0 .062 0 .083.043-.02 0-.02.02-.02.043-.02.02 0 .063.105.105 0 0 .02 0 0 .02 0 0-.043 0-.063-.02-.043-.02-.043-.084-.104-.043h-.043c-.063 0-.146.062-.105.125l.063-.063c0 .02.02.043.02.043 0 .063.043.105.146.02.02 0 .02 0 .02.02-.02.044-.104.105-.043.147l.02.02c-.02.062.062.125.104.125-.02-.02-.062-.063-.043-.104h.043c.043-.02.02-.084.043-.105.02-.02.02 0 .02 0 0 .02.02.084.105.084.062 0 .083-.063.083-.105.02.02.043.043.043.084 0-.02.044-.02.044-.063.02.043.02.084-.02.126.02 0 .104-.043.104-.105.02 0 .02.02.043.02.02 0 .063.02.146 0v.084c0-.02.02-.043.044-.043.02 0 0 .062.043.104 0-.167.146-.125.25-.209.02 0 .02 0 .02.02s-.02.043-.043.043c.105.084.23-.083.272-.167l.043-.043c0 .02 0 .043-.02.063.105 0 .105-.084.147-.084.355.02.083-.292.648-.209.02.02.104-.02.125-.043-.02.063-.043.21.043.23.043 0 .104.043.125.063.02 0 0 0 0 0a.148.148 0 0 0-.104.043c-.125.062-.125-.189-.251-.126 0 0-.02 0-.043.02-.043 0-.105.044-.105.105.02-.02.044-.043.084-.043v.02c0 .02 0 .043.043.043s.043-.02.063-.02v.02c0 .043-.147-.02-.126.104 0 0 .02.043.044.043-.02.043.02.084.083.063 0-.02-.043-.043-.02-.043h.02l.02-.02v-.02l.02.02-.02.02.02.043c0 .043.062.104.146.063-.02-.02-.083-.02-.083-.043.02 0 .043-.02.043-.02v-.043h.02c.02-.02.02-.02.043-.02l.02.02c0 .02.043.043.083.043.105-.043.02-.105.084-.126h.062c.063.02.167.02.189-.02.02-.02 0-.146-.063-.188-.062-.02 0-.083-.043-.146a.435.435 0 0 0 .25.062c.168 0 .273-.02.356-.062.104-.063.21-.043.23-.02.02 0 .043 0 .02.043-.043.104-.02.104-.043.146-.02.043-.104 0-.167 0-.02 0-.043.02-.043.02-.063.02-.125.063-.125.104.02 0 .043-.043.083-.043v.02c0 .063.062.084.104.043.02 0 .02 0 .02.02-.043.02-.125.084-.083.105l.02.02c0 .043.02.083.043.083 0-.02 0-.043.02-.083h.043c.043 0 .043-.084.084-.104.02 0 .02 0 .02.02-.043.043-.063.083-.02.104h.043c0 .043.043.084.104.043-.02 0-.043-.02-.043-.043l.043-.043c.044-.104-.043-.104-.02-.146 0-.043.084 0 .126-.105 0-.02 0-.043-.02-.062h-.02c.043 0 .062 0 .083-.043-.062 0-.02-.063-.02-.084v-.02c.02-.02.062-.043.062-.104-.043.02-.125.062-.125 0 0 0 .02-.043-.062-.043-.125 0-.293 0-.523-.043-.02 0-.02 0 0 0 .23-.02.69-.063.69-.21 0-.125-.02-.209-.418-.209-.397 0-1.296.167-1.296-.062 0-.125.167-.105.376-.084m-1.296-.043c-.044.043-.084.063-.105.043-.043-.043 0-.062-.043-.125.043.043.104.084.146.084m.063.25s0-.043-.02-.043-.02 0-.02.043c-.02-.02-.044-.02-.063 0-.02.043-.02.043 0 .063.02.02 0 .043 0 .063-.02.043-.062.062-.104.043-.043-.02-.02-.063-.02-.084.02-.043.02-.062.043-.062.02.02.043 0 .062-.02 0-.044-.02-.044-.062-.063.043-.02.043-.02.043-.043-.02-.02-.043.02-.062 0 0-.02.02-.02.02-.043h.043l.146.062c0 .02.02.02.02.043 0 0 0 .043-.02.043m.084-.083c-.063-.02-.063-.063-.063-.104.02 0 .105.043.147.062-.062 0-.043.043-.083.043m3.04-1.178v-.02a.163.163 0 0 0 .042-.105c-.02.02-.104.063-.125 0 0 0 0-.062-.062-.043-.125.02-.251-.02-.502-.043-.02 0-.02 0 0-.02.251-.02.69-.043.69-.209 0-.125-.146-.209-.564-.209-.418 0-1.715.167-1.715-.084 0-.146.418-.083.753-.062.02.02.043.043.084.043.543.167 1.17-.251 1.505-.146-.44-.147-.711.104-1.108.02.23 0 .501-.063.501-.125-.188.125-.71-.084-.94.062 0 0-.02.02-.044.02-.397 0-.878-.043-.878.189 0 .418 1.484.187 1.84.187.334 0 .418.02.418.105 0 .104-.355.125-.544.125-.334 0-1.714-.188-2.258-.02.02-.104.167-.23.084-.314.062-.02.104-.062.104-.104-.043-.02-.062-.043-.104-.043.02-.02 0-.062-.02-.083-.02 0-.02-.063-.043-.063a.321.321 0 0 0-.126-.083c-.062-.043-.104-.02-.125-.043l-.062.02c-.043 0-.084 0-.084.02-.02-.02-.062-.043-.083-.043-.02.043-.043.083-.02.146-.043 0-.105.146-.146.125.02.043.02.043.043.043-.043.084-.062.167-.104.188.02.02.043.043.062.043v.146l-.083-.043h-.063c-.02 0-.043 0-.062-.02-.063 0-.125-.104-.23-.167-.084-.043-.084-.083-.084-.188 0-.062.02-.125.02-.188 0-.02 0-.062-.02-.062 0-.063-.062-.084-.104-.084.02.02.043.02.043.084-.02 0-.043.02-.043.02 0 .02-.02.062 0 .083.02 0 .02 0 .02.02l-.02.02c0 .02 0 0 0 0-.02-.043-.043-.125-.084-.125h-.043v-.02c0-.043-.062-.083-.125-.02.02 0 .043 0 .062.02 0 .02-.02.043-.02.063 0 .043.044.062.105.062v.02c.02 0 .02 0 .02.02h-.02c-.084-.043-.125 0-.125.043v.043c-.044.02-.044.084.02.105 0 0 0-.043.02-.043h.02s.02 0 .02.02c0 0 .02 0 .043-.02.02 0 .02-.02.043 0h.02v.02c-.062.063-.062.125.02.146.02 0 .02 0 .02.02 0 .126-.167.084-.146-.02-.104.126.062.23.167.167h.02c0 .02.02.043.043.043 0 0 0-.02.02-.02v.02c.02.02.02.063.062.063 0-.02 0-.043.02-.043s.105.167.272.272c-.02-.02.063-.043.105-.063 0 .043.02.063.062.084l.02-.02c-.02.083.083.167.062.167-.02 0-.187-.02-.23 0-.083.043-.292.104-.334.043-.02-.043-.02-.063-.043-.105-.02-.02-.043-.043-.063-.043l-.043-.02a.185.185 0 0 0-.146 0c.043 0 .062 0 .084.043 0 .02-.02.043-.02.043-.02.02 0 .063.125.104v.02c-.02.02-.043.02-.063 0-.062-.042-.062-.083-.125-.062 0 0-.02.02-.043.02-.063 0-.146.063-.104.125 0-.02.02-.062.062-.062 0 .02.02.02.02.043 0 .062.043.104.167.02v.02c-.02.043-.104.104-.043.146 0 0 .02 0 .02.02-.02.084.062.126.104.126-.02-.02-.043-.043-.043-.105h.043c.062-.02.043-.083.062-.104.02-.02.02 0 .02 0 0 .02.02.104.084.084.083 0 .104-.063.104-.105.043.02.043.043.043.084.02 0 .044-.02.063-.063 0 .043 0 .084-.043.146.043-.02.104-.062.125-.125.02 0 .02.02.02.02h.02c.02.02.062.02.125 0h.02v.084c.02-.02.02-.043.043-.043.02 0 0 .083.043.125.02-.188.105-.125.23-.188.02-.02.02 0 .02 0l-.062.062c.043.043.21-.083.21-.146 0-.02.062-.02.124-.02.126 0 .105-.104.147-.104.71.104.292-.293 1.108-.21.043 0 .062-.043.104-.062-.043.062-.043.23.02.25.043 0 .125.02.146.044.02.02 0 .02 0 .02-.043 0-.104.02-.104.02-.126.083-.146-.167-.272-.125l-.043.02c-.043 0-.125.062-.105.125a.288.288 0 0 1 .084-.063v.043c0 .02 0 .043.043.043.02 0 .043-.02.062-.02v.02c0 .043-.167-.02-.125.105l.02.043c0 .043.02.083.105.062 0 0-.044-.02-.044-.043h.044s.02 0 .02-.02c0 0 0-.02 0 0h.02s-.02.02 0 .02v.063c0 .043.062.104.146.043-.02 0-.063 0-.084-.02.02-.02.043-.02.043-.02 0-.02.02-.043.02-.063h.044c.02-.02.02 0 .02 0 .02.043.062.063.104.043.083-.02.02-.104.083-.125h.063c.062.02.167.02.188-.02.02-.02.02-.146-.062-.188-.044-.02 0-.084-.044-.147.084.02.167.063.272.063.188 0 .251-.02.335-.083.104-.063.209-.02.25-.02.02 0 .044 0 .02.042-.02.105 0 .105-.02.167-.02.02-.104 0-.167 0a.22.22 0 0 0-.062.02c-.043 0-.104.044-.104.105.02 0 .062-.043.083-.043v.02c0 .063.084.084.125.043 0 0 .02 0 .02.02-.043.02-.125.084-.062.104l.02.02c0 .044.02.084.062.105 0-.02 0-.043.02-.084h.02c.044 0 .044-.083.084-.125 0 0 .02 0 0 .02 0 .043-.02.105.02.126h.02c.02.043.062.062.125.043-.02-.02-.043-.02-.043-.043 0-.02.02-.043.02-.063.043-.104-.043-.104-.043-.146.02-.043.104 0 .104-.125.02 0 0-.043-.02-.043v-.02c.02 0 .043.02.062-.02-.062 0-.043-.063-.043-.105m-3.052-.794c.02.02.125.062.167.062-.084.02-.063.043-.105.043-.062 0-.062-.062-.062-.104m-.104-.063c-.02.063-.063.084-.105.043-.043-.043 0-.043-.043-.104.043.02.125.063.146.063m-.146.355c0-.02.02-.063.043-.063.02 0 .043 0 .063-.02 0-.043-.02-.063-.063-.063.043-.02.063-.043.043-.043-.02-.02-.062 0-.062 0 0-.02.02-.043.02-.043h.043l.147.063s.02.02.02.043c0 0 0 .043-.02.043 0 0 0-.043-.02-.043-.02-.02-.02.02-.02.043-.02 0-.063-.02-.063 0-.02.043-.02.043 0 .063.02.02 0 .043 0 .083-.02.02-.062.063-.104.043-.043-.02-.043-.083-.02-.104m-.104-.188h-.02zm-2.593-2.575c0-.125-.125-.209-.564-.209-.418 0-1.715.167-1.715-.083 0-.146.44-.084.753-.084.02.043.062.063.104.063.544.146 1.108-.21 1.506-.084-.314-.271-.711.043-1.13-.043.252 0 .502-.062.524-.125-.189.125-.732-.083-.941.063-.02 0-.043.02-.043.02-.397 0-.9-.043-.9.188 0 .418 1.485.188 1.84.188.356 0 .44.02.44.084 0 .104-.356.125-.565.125-.335 0-1.714-.167-2.258 0 .043-.105.167-.23.104-.314.063-.02.084-.062.084-.104a.162.162 0 0 0-.105-.043c.02-.043 0-.063-.02-.084l-.02-.062a.785.785 0 0 0-.125-.105c-.062-.02-.104-.02-.125-.02h-.084c-.02 0-.062 0-.062.043a.162.162 0 0 0-.104-.043c-.02.043-.02.084 0 .147-.063 0-.105.125-.167.125.02.043.043.043.062.043-.043.084-.062.167-.104.188 0 .02.02.02.043.043-.02.043-.02.083-.02.125l-.043-.02h-.063c-.02 0-.043-.02-.083-.02-.063 0-.105-.104-.23-.167-.063-.063-.084-.084-.084-.188 0-.063.044-.126.044-.21 0 0-.02-.042-.02-.062-.02-.043-.084-.083-.126-.063.02 0 .044.02.044.063 0 .02-.02.043-.02.043-.02.02-.02.063 0 .084v.04c0 .02 0 0 0 0-.02-.043-.044-.126-.105-.126 0 0-.02-.02-.02 0v-.02c0-.043-.062-.083-.125-.02.02 0 .043 0 .043.02v.043c-.02.063.02.084.084.084.02 0 .02 0 .02.02v.02c.02 0 0 0 0 0-.105-.043-.147 0-.147.043v.043c-.02.02-.043.084.02.104 0 0 0-.043.02-.043s.02 0 .02-.02c0 .02.02.02.02.043.02 0 .044 0 .063-.02 0-.02.02-.02.02 0h.02c.02.02.02.02 0 .02-.063.063-.043.126.043.146v.02c0 .105-.146.084-.146-.02-.083.126.062.23.188.167.02.02.02.043.043.043 0 0 .02-.02.044-.02 0 .043.02.084.062.084-.02-.02 0-.043 0-.043.02 0 .104.167.293.25.02 0 .083 0 .083-.042l.043.043c0 .062.063.167.043.167-.02 0-.292-.02-.355.02-.062.043-.272.104-.313.043-.02-.043-.02-.063-.044-.105-.02-.043-.043-.043-.062-.062h-.062c-.02-.02-.084-.02-.126 0 .02 0 .063 0 .084.043-.02.02-.02.043-.02.043-.02.02-.02.062.104.104.02 0 .02.02.02.02-.02 0-.043.02-.083 0-.043-.043-.043-.104-.105-.062 0 0-.02 0-.043.02h-.02c-.043-.02-.125.062-.083.125 0-.02.02-.063.062-.063v.043c.02.063.043.105.189.02-.02.063-.126.126-.044.168l.02.02c-.02.083.063.125.105.125a.163.163 0 0 1-.044-.105h.044c.062-.02.02-.083.062-.104.02-.02.02 0 .02 0 0 .02.02.104.083.084.084 0 .105-.063.105-.105.02.02.043.043.043.084.02 0 .043-.02.043-.063.02.043.02.084-.02.125.02 0 .105-.043.125-.125 0 .02.02.043.02.043.044.02.084.02.147 0h.02c-.02.043-.02.063 0 .084 0-.02.02-.043.043-.043.02 0 0 .083.043.125 0-.188.23-.104.334-.167.02-.02.02-.02.02 0s-.02.043-.043.063c.02 0 .105-.02.147-.063 0 0-.02 0-.02.02l.188-.083c.02-.02.02-.043.02-.063.02-.02.043-.02.062-.02.126.02.105-.084.147-.084.69.105.292-.292 1.108-.209.043 0 .062-.02.083-.043-.043.063-.043.21.044.21.043.02.125.042.146.062v.02c-.063 0-.105.02-.126.02-.125.084-.125-.188-.271-.125l-.02.02c-.063 0-.126.063-.126.125.02-.02.063-.062.084-.062v.043c0 .02.02.043.062.043.02 0 .02-.02.043-.02.02 0 .02 0 .02.02 0 .043-.167-.043-.125.104 0 0 0 .043.02.043-.02.043.02.084.105.063-.02 0-.044-.02-.044-.043h.044v-.02s0-.02.02-.02c0 .02.02.02.02.02l-.02.02c0 .02 0 .043.02.062-.02.043.062.105.125.043-.02 0-.063 0-.063-.043h.044v-.062h.02s.02 0 .043-.02l.02.02c0 .043.043.062.104.043.084-.02 0-.105.084-.126h.043c.083.02.188.02.209-.02 0-.02 0-.167-.084-.209-.043-.02.02-.062-.02-.125.063.02.147.062.251.062.21 0 .251-.043.335-.083.104-.063.209-.043.23-.02.02 0 .043 0 .043.043-.02.104.02.104-.02.146 0 .043-.104.02-.147.02-.043-.02-.062.02-.062.02a.1.1 0 0 0-.104.105c.02-.02.043-.043.083-.043v.02c.02.062.084.083.125.043.02 0 .02 0 .02.02-.043.02-.104.083-.043.104l.02.02c0 .043.02.084.063.105 0-.02-.02-.043.02-.084h.02c.043 0 .02-.083.062-.125h.02c-.02.062-.02.125.02.125l.02.02c.02.043.062.063.125.02-.02 0-.043-.02-.043-.043l.02-.043c.043-.104-.062-.104-.062-.146 0-.043.104-.02.104-.125 0 0 0-.043-.043-.063.02 0 .062 0 .062-.02-.062 0-.043-.063-.062-.105 0-.02 0-.02.02-.02.02-.02.043-.062.02-.104-.02.02-.105.063-.105 0-.02 0-.02-.063-.083-.043-.146 0-.23-.02-.46-.043.23-.02.67-.063.67-.23m-3.074-.334c.02.02.104.043.167.062-.083.02-.062.043-.125.043-.043 0-.063-.062-.043-.104m-.105-.063c-.02.043-.062.084-.104.043-.043-.043 0-.043-.043-.125a.353.353 0 0 0 .146.084m-.167.334.043-.043c.043 0 .043 0 .062-.02.02-.043-.02-.063-.043-.084.02 0 .043-.02.02-.043-.02 0-.043.02-.062 0 0 0 .02-.02.043-.02 0-.02.02-.02.043 0l.125.063c.02 0 .02 0 .02.02s.02.043 0 .062c-.02 0-.02-.062-.043-.062-.02 0-.02.02 0 .062-.02-.02-.062-.043-.083 0-.02.02 0 .043.02.063 0 .02 0 .043-.02.063 0 .043-.043.083-.084.043-.062-.02-.043-.063-.043-.105m3.56-1.883c0-.125-.168-.209-.607-.209-.439 0-1.443.146-1.443-.104 0-.105.21-.105.44-.084.02.02.043.043.104.043.564.167 1.233-.125 1.589-.02-.418-.313-.753 0-1.192-.104.25 0 .334-.063.355-.126-.209.126-.564-.062-.794.063-.02.02-.044.02-.044.043-.334 0-.585 0-.585.188 0 .46 1.192.188 1.568.188.376 0 .46.043.46.105 0 .125-.376.146-.586.146-.313 0-1.296-.167-1.881-.063.043-.083.146-.209.083-.271.063-.043.105-.084.105-.126-.043-.02-.084-.043-.105-.043 0-.02-.02-.062-.043-.083 0 0 0-.063-.02-.084-.02 0-.062-.043-.125-.083-.063-.02-.104-.02-.146-.02 0-.02-.063 0-.063 0-.043 0-.083 0-.083.043-.02-.043-.062-.043-.104-.043-.02.043-.02.083-.02.146-.044 0-.105.146-.146.126.02.043.02.043.043.062-.043.063-.063.167-.105.167.02.043.044.063.063.063v.167l-.105-.02s-.02 0-.02-.02h-.043.043l-.062-.02a1.587 1.587 0 0 0-.188-.168c-.084-.043-.084-.083-.084-.166.02-.084.044-.167.044-.23 0 0 0-.043-.02-.063 0-.043-.063-.084-.105-.084.02.02.043.043.043.084-.02.02-.02.043-.043.043 0 .02-.02.043 0 .083h.02c0 .02 0 .02-.02.043 0 .02 0 0 0 0-.02-.062-.043-.146-.083-.146h-.044c0-.063-.062-.104-.125-.043l.043.02v.063c-.02.062.02.083.084.083.02 0 .02 0 .02.02v.02c-.104-.043-.146 0-.146.043 0 0-.02.043 0 .043-.043.02-.063.084 0 .126 0-.02 0-.063.043-.063v-.02c.02.02.02.043.043.043 0 0 .02 0 .043-.02.02-.02.02-.02.02 0 .02 0 .02 0 .044.02v.02c-.084.063-.063.125.02.146h.02c-.02.147-.189.104-.167-.02-.105.146.062.25.187.188.02.02.02.043.044.043 0 0 .02-.02.043-.02v.02c0 .02 0 .062.043.062 0-.02.02-.043.02-.043.02 0 .083.105.188.167.083.02.146.105.188.063 0 .083.063.188.063.188-.044 0-.272-.02-.314 0-.083.043-.293.125-.355.043-.02-.02-.02-.062-.043-.104-.02-.02-.044-.043-.063-.043h-.043c-.043-.043-.125-.043-.146-.02.02 0 .062 0 .083.043-.02.02-.02.043-.02.043-.02.02-.02.083.126.125v.02c-.02 0-.044 0-.084-.02-.043-.043-.043-.083-.104-.063 0 0-.02.02-.043.02h-.02c-.063 0-.147.063-.105.126 0 0 .02-.043.063-.043.02 0 .02.02.02.043.02.062.043.104.187.02 0-.02 0 0 0 0-.043.062-.125.104-.043.167l.02.02c-.02.083.063.146.105.146a.179.179 0 0 1-.044-.125c.02.02.044.02.044.02.062-.043.043-.104.062-.125.02-.02.02-.02.02 0 .02.043.02.104.104.104.063-.02.105-.063.105-.125.02.02.043.043.043.083.02 0 .043-.02.062-.062 0 .043.02.083-.043.146.02-.02.105-.062.125-.146.02.02.02.043.044.062v-.02c.02.02.062.02.146 0 .02 0 .02 0 .02.02-.02.02-.02.063 0 .063 0 0 .02-.043.043-.043.02 0-.02.083.044.125 0-.188.125-.125.23-.188.02-.02.02-.02.02 0s-.02.043-.044.062c.126.043.335-.166.376-.25.044-.02.105-.02.126-.02.397.043.125-.356.752-.251.043.02.105-.02.146-.063-.043.084-.043.25.044.272a.22.22 0 0 1 .146.062s0 .02-.02.02c-.043 0-.083.02-.104.02-.146.084-.146-.188-.293-.146 0 0-.02.02-.043.02-.043 0-.125.084-.104.125.02 0 .043-.043.083-.043v.043s0 .043.062.043c.02 0 .02-.02.044-.02.02 0 .02 0 .02.02 0 .043-.167-.043-.147.105 0 .02.02.043.02.043 0 .062.044.104.126.062-.02 0-.044-.02-.044-.043h.044l.02-.02h.02c0 .02-.02.02-.02.043l.02.043c-.02.043.062.105.146.063-.02-.02-.062-.02-.083-.043.02 0 .043-.02.043-.02s.02-.02.02-.063h.086c0 .043.044.063.105.043.083-.02 0-.104.083-.125h.063c.062.02.188.02.209-.02 0-.043 0-.167-.084-.21-.043-.02 0-.083-.043-.146.084.02.167.063.272.063.209 0 .272-.02.355-.084a.268.268 0 0 1 .251-.02c.02 0 .043.02.02.043-.02.105.02.125 0 .167-.02.043-.104 0-.167 0-.043 0-.062.02-.062.043-.044 0-.105.043-.105.105.02-.02.043-.043.084-.043v.016c.02.062.104.083.146.043 0 0 .02 0 0 .02-.043.02-.105.083-.043.104 0 .02.02.02.043.043-.02.043.02.084.062.084-.02-.02-.02-.043 0-.084h.043c.044 0 .02-.083.063-.125h.02c-.02.062-.043.125.02.146h.02c.02.043.062.063.125.043 0 0-.043-.02-.043-.043 0-.02.02-.043.02-.062.043-.105-.063-.105-.063-.146 0-.043.105-.02.105-.126 0-.02 0-.062-.043-.062v-.02c.02 0 .062.02.083-.02-.083 0-.062-.063-.083-.105 0-.02 0-.02.02-.02a.179.179 0 0 0 .043-.125c-.043.043-.125.083-.146 0 0 0 0-.043-.063-.02-.146 0-.23-.02-.501-.043.292 0 .732-.084.732-.251m-3.471.272v-.02.02m.71-.648c0 .02.126.062.168.062-.084.02-.063.063-.105.063-.062-.02-.083-.084-.062-.125m-.104-.043c-.02.02-.084.062-.126.02-.02-.02 0-.043-.043-.126.043.043.126.084.167.105m-.167.355c0-.043.02-.063.043-.063.02 0 .044 0 .063-.043 0-.02-.02-.043-.063-.062.044-.02.063-.02.044-.043-.02-.02-.063.02-.063 0s.02-.02.02-.043h.063l.125.062c.02.02.02.02.02.043 0 .02.02.043 0 .043-.02.02-.02-.043-.043-.043-.02 0-.02.02 0 .063-.043-.02-.063-.043-.084 0-.02.02 0 .043 0 .063.02.02 0 .043 0 .062-.02.043-.062.084-.104.063-.043-.02-.043-.084-.02-.104m.355.773v-.02.02m2.051-2.41c.46.02.67-.146.67-.272 0-.501-1.234-.188-1.234-.501 0-.063.043-.105.083-.147h.02c.627-.043.627-.48 1.087-.564-.543-.084-.627.355-.857.355.125-.043.167-.188.167-.25-.104.145-.355.166-.501.334 0 .02-.02.062-.02.083-.063.043-.126.105-.126.188 0 .46 1.276.147 1.276.481 0 .125-.23.21-.565.21-.272 0-.46-.19-.94-.063 0-.084.166-.23.104-.314.043-.02.083-.043.083-.083-.043-.043-.062-.043-.104-.043.02-.02 0-.063-.02-.084 0 0 0-.043-.02-.063-.02 0-.063-.043-.125-.062-.044-.043-.084-.043-.105-.043l-.062.02c-.043-.02-.063-.02-.063.02-.02-.02-.062-.043-.083-.043-.02.043-.043.084-.02.147-.043 0-.104.104-.146.104l.043.043c-.02.063-.043.146-.083.146.02.02.02.043.043.043-.043.104-.063.23-.084.293-.02-.02-.043-.063-.104-.084-.063-.043-.063-.083-.043-.146 0-.063.043-.126.043-.188v-.043c0-.043-.063-.084-.105-.063.02 0 .044.02.044.063-.02 0-.044.02-.044.02-.02.02-.02.043 0 .062v.04c-.02.02-.02 0-.02 0 0-.042-.02-.104-.062-.104h-.043v-.02c.02-.043-.043-.083-.105-.02.02 0 .044 0 .044.02s-.02.043-.02.043c0 .043.02.063.083.063.02 0 .02.02.02.02v.02c-.104-.043-.146 0-.146.043v.02c-.043.02-.062.063 0 .104 0-.02 0-.043.02-.062h.02c0 .02.02.02.02.02h.062c0-.02 0-.02.02 0h.02v.02c-.083.043-.083.104 0 .125.02 0 .02 0 .02.02-.02.084-.167.063-.146-.02-.104.105.02.189.146.126 0 0 .02 0 .02.02s0 .02.02.02l.02-.02c.02 0 .02.02.02.02 0 .02 0 .062.044.062 0-.02 0-.043.02-.043s.043.084.104.167a1.53 1.53 0 0 1-.272.084c-.02 0-.167-.02-.23 0-.062.043-.25.104-.292.043-.02-.02-.02-.063-.02-.105-.02-.02-.044-.043-.063-.043h-.043c-.043-.02-.104-.02-.125 0 .02 0 .043 0 .062.043l-.02.02c0 .02 0 .063.126.105v.02c-.02 0-.044.02-.063 0-.043-.043-.062-.104-.104-.063 0 0-.02.02-.043.02-.063 0-.126.044-.105.105.02-.02.02-.043.063-.043.02 0 .02.02.02.02 0 .063.02.104.146.02v.02c-.02.043-.105.105-.044.125l.02.02v.02c0 .063.063.105.105.105-.02-.02-.043-.043-.043-.104.02.02.043.02.043.02.043-.02.02-.084.062-.105 0-.02 0 0 0 0 .02.02.02.084.084.084.062 0 .104-.063.104-.084v-.02c.02.02.043.043.02.084.02-.02.043-.02.063-.063 0 .043 0 .084-.044.125.044-.02.105-.043.126-.125 0 .02.02.043.02.043.02 0 .062.02.125 0h.02c-.02.02-.02.063 0 .063l.02-.02c.02 0 0 .062.043.104.02-.167.104-.104.21-.167.02-.02.02-.02.02 0s-.02.043-.044.063c.043 0 .125-.043.125-.105 0-.02.02-.043.063-.062.043 0 .104-.02.125-.063 0 .02.02.084 0 .084.104.02.23-.105.272-.126.23-.043-.167-.209.334-.188.043 0 .104-.02.125-.043-.02.063-.02.21.043.23.044 0 .105.02.126.043v.02c-.044 0-.084 0-.105.02-.125.084-.125-.167-.25-.125l-.02.02c-.044 0-.105.063-.105.105.02 0 .043-.043.084-.043v.02c0 .02 0 .043.043.043h.063c0 .062-.146-.02-.125.104 0 0 .02.02.02.043 0 .043.02.084.104.043-.02 0-.043-.02-.043-.043.02 0 .02 0 .043.02v-.02c0-.02 0-.02.02-.02v.083c0 .043.062.084.125.043-.02 0-.043 0-.062-.02.02-.02.043-.02.043-.02v-.043c0-.02.02-.02.02-.02h.02c.02 0 .043 0 .043.02s.043.043.084.02c.083-.02.02-.083.083-.104h.043c.063.02.167.02.167-.02.02-.02.02-.147-.043-.189-.043 0 0-.062-.043-.125a.41.41 0 0 0 .23.063c.188 0 .02-.02.084-.063.083-.063.188-.043.209-.02.02 0 .043 0 .043.043-.02.083 0 .104-.02.125 0 .043-.084.02-.125.02-.044 0-.063 0-.063.02-.043 0-.083.043-.083.084 0 0 .043-.02.062-.043v.02c.02.063.084.084.125.043 0 0 .02 0 .02.02-.043.02-.104.084-.043.104l.02.02c0 .02.02.063.063.063-.02 0-.02-.02 0-.062h.02c.043 0 .02-.084.062-.105h.02c-.02.063-.02.105.02.125h.02c.02.043.062.063.104.02 0 0-.043 0-.043-.02s.02-.043.02-.043c.02-.104-.043-.104-.043-.146 0-.043.083 0 .083-.104 0 0 0-.043-.043-.043v-.02c.02 0 .043.02.062-.02-.062 0-.043-.063-.062-.105h.02c.02-.02.02-.043.02-.104-.02.02-.104.063-.104 0 0 0 0-.043-.063-.043-.125.02-.188-.043-.397-.063-.02 0-.02 0 0-.02m-1.38-.501h-.02.02m.314-.084c.02.02.104.063.146.063-.062.02-.043.043-.083.043-.043 0-.063-.063-.063-.104m-.083-.043c-.02.043-.063.062-.105.02-.02-.02.02-.043-.02-.084.02.02.105.063.126.063m-.147.313c.02-.043.02-.062.043-.062.02 0 .044 0 .044-.02.02-.02-.02-.043-.044-.063.044 0 .044-.02.02-.02 0-.02-.043 0-.043-.02l.02-.02c.02-.02.02 0 .043 0l.126.062c.02 0 .02 0 .02.02v.043c-.02 0-.02-.043-.044-.043-.02 0-.02.02 0 .043-.043 0-.062-.02-.062 0-.02.02-.02.043 0 .063v.063c-.02.02-.062.062-.104.043-.044-.02-.02-.063-.02-.084m1.716 7.08-.104-.02v-.084c.02-.376-.21-.648-.606-.648-.356 0-1.046.46-2.007.46-.418 0-.9-.21-1.192-.397l-.125.292v-.02a.254.254 0 0 0-.251-.25c-.125 0-.23.124-.23.25 0 .125.104.23.23.23.083 0 .146-.02.188-.083l-.125.292c.062.02.104.043.146.043-.146 1.464.92 3.324 2.843 3.889.272-.063.564-.02.564.272 0 .209-.083.292-.271.292-.105 0-.189-.083-.189-.146 0-.125.23-.063.251-.146.043-.105-.043-.167-.167-.167-.146 0-.334.083-.334.313 0 .25.209.418.439.418.209 0 .648-.125.585-.648.104 0 .23 0 .25-.104l.02-.293-.103-.02.083-3.345h.062c.126.02.23-.043.251-.167 0-.146-.104-.21-.209-.21m-3.45.252 2.321 3.345c-1.233-.482-2.467-1.61-2.32-3.345m2.383 3.01-2.112-3.031h.21c.104 0 .209 0 .313-.02l1.693 2.446c-.02.23-.062.439-.104.606m.167-.962-1.484-2.132c.146-.043.313-.084.46-.146l1.128 1.61a8.11 8.11 0 0 0-.104.668m.355-2.341-.083-.02c-.105 0-.23.043-.23.188-.02.125.083.21.188.21h.084c-.02.042-.02.062-.02.083-.02.188-.084.501-.126.878l-.961-1.36c.439-.166.794-.375 1.003-.375.147 0 .188.083.147.397m5.77-3.477a.237.237 0 0 0 .167-.146.141.141 0 0 1-.167-.02c.062-.043.125 0 .062-.104-.083-.126-.125-.126-.209-.043-.062.083-.564-.02-.543-.397.02.062.083.125.167.146.02 0 .02.02.043.02.02.02.043.02.062.02.063.02.105.02.146.02h.02v-.02c.105-.02.188-.084.21-.188.02-.209-.189-.292-.398-.481a1.798 1.798 0 0 1-.188-.167c-.083-.146-.043-.293-.209-.544a2.007 2.007 0 0 1-.062-.25.684.684 0 0 0 .104.794c.21.23.648.439.627.627 0 .043-.043.084-.104.105h-.063c-.02 0-.02-.02-.043-.02-.043-.02-.062-.02-.083-.044-.063-.02-.105-.062-.167-.125-.188-.167-.335-.418-.46-.564-.188-.251-.104-.502-.062-.711.125-.21-.105-.606-.23-.71 0 0 .02-.105 0-.21-.044.02-.105.02-.146.02-.02-.083-.044-.104-.084-.104-.104-.02-.104-.063-.104-.105-.043.043-.063.084-.125.105-.063 0-.105 0-.126.02-.062.043-.083.062-.167.062-.062 0-.062.043-.062.105 0 .02 0 .083.062.104l.02.02.063.063.043-.063c.043-.043.146-.043.167.02.02.063.02.063-.043.084h-.167c-.063.02-.063.083-.063.104 0 .063.063.084.167.063.105-.043.272-.043.272.02 0 .23-.25.23-.313.48-.063-.043-.126-.083-.147-.146a1.617 1.617 0 0 0-.188-.23c-.062-.043-.125-.104-.188-.146-.084-.063-.104-.084-.104-.188 0-.083.043-.147.043-.23 0 0-.02-.043-.02-.063-.02-.043-.084-.083-.125-.062.02 0 .043.02.062.062l-.043.043c-.02.02-.02.063 0 .084v.063c-.02-.063-.043-.147-.105-.147h-.043v-.02c0-.043-.043-.083-.125-.02.02 0 .043 0 .062.02-.02.02-.02.043-.02.043a.1.1 0 0 0 .105.105h.02v.04c-.105-.063-.146 0-.146.043v.043c-.044.02-.044.083.02.125 0-.02 0-.062.02-.083h.02c0 .02.02.02.02.02 0 .02.02.02.062-.02h.02l.02.02c.02.02.02.02 0 .02-.062.062-.043.125.043.146-.062.063-.167.043-.167-.062-.083.146.063.23.188.188 0 .043 0 .146.02.146 0-.02 0-.02.02-.02 0 .043.02.084.063.084 0-.02 0-.043.02-.043.02.043.043.062.062.104.043.083.167.355.439.46-.146.083-.23.209-.313.292-.084.084-.189.167-.251.126l-.084-.084c-.02-.02-.062-.02-.083-.02 0 0-.02 0-.043.02-.044-.02-.105 0-.126.043.02 0 .043-.02.084.02v.043c0 .02.02.063.167.043 0 0 .02.02 0 .02 0 .02-.02.043-.063.02-.062-.02-.083-.062-.125 0-.02 0-.02.02-.043.043 0-.02 0 0 0 0-.063 0-.125.105-.063.147 0-.02.02-.043.044-.084l.043.043c.043.063.083.084.167-.043.02-.02.02 0 .02 0-.02.063-.084.146 0 .167h.043v.02c.02.063.125.084.167.063-.043 0-.083-.02-.104-.083h.043c.062-.063 0-.126.02-.147 0-.02.02 0 .02 0 .02.02.062.084.125.043.043-.02.063-.043.063-.083.083-.043.166-.063.23-.043 0-.043.043-.125.146-.146.104-.02.146 0 .167.043.02-.043.062-.104.104-.167-.02.376.523.376.628.606-.147-.062-.335-.104-.418-.083-.126.02-.356.146-.377.292-.02.105.084.314.21.418-.146.02-.189-.02-.335 0h-.02c-.104.02-.125-.188-.272-.146l-.043.043c-.043 0-.125.063-.104.125 0-.02.043-.043.083-.062v.043c0 .02 0 .043.044.043.043 0 .043-.02.062-.02 0 0 .02 0 .02.02 0 .043-.188-.043-.146.125 0 0 .02.02.02.043 0 .043.043.084.104.063 0-.02-.043-.043-.02-.063h.02c.02 0 .02 0 .02-.02h.02v.086c0 .063.084.125.167.063-.02 0-.083-.02-.083-.043.02 0 .043-.02.043-.02s.02-.02.02-.044v-.02h.043c.02 0 .02 0 .02.02.02.02.063.043.105.043.043-.02.043-.043.062-.043.02 0 .043.02.062.043-.02-.062.02-.104.146-.02l.084-.062s.104.043.146-.02c.083-.063.043-.063.043-.126-.043-.104-.083-.104-.104-.209-.043-.209.23-.313.376-.271.043.125.21.438.501.543.167.063.251-.146.314-.104 0 0 .02.02.02.043 0 .083 0 .167-.02.209-.02.043-.104 0-.167 0-.043 0-.083.02-.083.043-.044 0-.105.043-.105.125.02-.02.043-.063.105-.063v.02c0 .084.083.105.125.063.02-.02.043 0 .02 0-.043.043-.125.105-.043.125l.02.02c0 .063.043.105.083.105-.02-.02-.02-.043 0-.084h.043c.043 0 .02-.104.084-.125-.02.063-.02.125.02.147h.043c.02.043.062.083.147.043-.02 0-.063-.02-.063-.043 0-.02.02-.043.02-.063.043-.104-.062-.104-.062-.146 0-.063.125-.02.125-.147l-.02-.02c.062-.02.125-.062.125-.104-.062 0-.125-.02-.146-.02zm1.087.67c.104.083.084.25-.062.23-.126-1.13-.565-2.217-1.192-3.137 0 0 0-.02.02-.02a.367.367 0 0 0 .25-.313c-.187-.043-.313.062-.396.167-.043-.063-.084-.126-.125-.167a5.583 5.583 0 0 0-1.36-1.276 4.517 4.517 0 0 0-1.484-.669c0-.125.167-.146.23-.043.02-.188-.146-.292-.25-.25-.044.02-.105.062-.105.146-.062-.084-.146-.125-.293-.147 0 .126.044.23.105.293-.105 0-.146.043-.167.084-.063.083 0 .271.209.292-.104-.083-.062-.23.062-.209v2.404c-.125-.02-.271-.02-.397.105.126.146.272.146.397.104v2.634c-.125.02-.167-.146-.062-.23-.188 0-.272.188-.23.272.02.063.083.104.188.104a.398.398 0 0 0-.105.272c.126 0 .21-.043.272-.104 0 .125.043.167.105.209.104.043.271-.043.271-.251-.062.104-.23.083-.23-.043h1.84a.376.376 0 0 0 .104.397c.126-.125.126-.272.105-.397h2.028c.02.125-.146.167-.21.063 0 .187.168.271.272.23.063-.02.105-.084.084-.21a.397.397 0 0 0 .272.105.367.367 0 0 0-.105-.272.234.234 0 0 0 .21-.104c.043-.084-.063-.272-.252-.272m-1.756-3.199c-.062.043-.083.126-.062.167.02.063.083.125.188.125a.504.504 0 0 0-.146.251c.125.02.23 0 .293-.062-.02.104.02.188.062.209.043.043.104.043.167.02.48.753.795 1.61.94 2.509a.41.41 0 0 0-.23-.063c0 .125.044.21.126.272h-1.547c0-.084-.043-.167-.125-.188-.043-.02-.125-.02-.21.062a.372.372 0 0 0-.104-.272.405.405 0 0 0-.125.272c-.062-.083-.146-.083-.21-.062-.062.02-.103.104-.103.188h-1.318a.437.437 0 0 0 .084-.251.352.352 0 0 0-.251.104v-2.153c.083.02.188-.043.21-.104.02-.063 0-.126-.084-.21a.411.411 0 0 0 .271-.125.375.375 0 0 0-.271-.104c.083-.084.104-.146.083-.23-.02-.063-.125-.104-.21-.084v-1.819a.316.316 0 0 0 .21.084.322.322 0 0 0-.043-.25c.397.124.794.333 1.192.585.438.292.857.69 1.212 1.128m5.793 3.955c-.21-.167-.565-.502-.753-.9-.23-.48-1.212-2.424-1.38-2.675a1.193 1.193 0 0 1-.188-.586c0-.209.105-.355.21-.522a3.66 3.66 0 0 0 .375-.418c.063-.104.105-.167.167-.23-.355-.627-.731-1.087-1.191-1.63a9.49 9.49 0 0 0-1.924-1.652c.377-.251.753-.606.753-1.213 0-.334-.146-.606-.397-.836.397-1.275 1.108-2.801 1.714-3.47l-1.275-.544c.334.502.355 1.087.293 1.443-.335-.23-.627-.544-.711-.962-.063.376-.293 1.003-.48 1.38.375-.167.668-.251 1.045-.105-.21.293-.774.753-1.61.544-.46-.104-.9-.355-.9-.69.02-.21.168-.46.46-.439.293.02.293.439.21.648.355-.209.752-1.296.167-1.442-.44-.126-.858.48-1.004.961-.083-.564-.313-1.108-.773-1.087-.586.043-.397 1.13-.188 1.401.043-.376.25-.585.418-.564.146 0 .355.125.334.46-.043.354-.543.564-1.108.564-.543 0-1.484-.167-1.568-1.213.355.063.9.335 1.129.69a8.066 8.066 0 0 1 0-1.735 1.767 1.767 0 0 1-1.108.669c.083-.439.48-.92.92-1.192h-2.32c.438.272.836.753.94 1.192-.355-.063-.815-.272-1.108-.67a8.066 8.066 0 0 1 0 1.736c.23-.355.753-.627 1.108-.69-.083 1.045-1.024 1.213-1.568 1.213-.564 0-1.066-.21-1.087-.565-.043-.334.167-.46.313-.46.189-.02.397.189.418.565.21-.272.397-1.359-.188-1.4-.46-.02-.69.522-.773 1.086-.147-.48-.565-1.087-1.004-.961-.564.146-.188 1.233.167 1.442-.083-.209-.062-.627.21-.648.292-.02.438.23.459.439.02.334-.439.585-.899.69-.836.21-1.38-.23-1.589-.544.376-.146.67-.062 1.045.105a7.243 7.243 0 0 1-.48-1.38c-.084.418-.377.732-.711.962a1.938 1.938 0 0 1 .271-1.443l-1.275.544c.606.669 1.317 2.216 1.714 3.49-.25.21-.376.482-.376.816 0 .607.376.962.753 1.213a9.486 9.486 0 0 0-1.924 1.651 11.17 11.17 0 0 0-2.028 3.408c.167.167.941 1.004 1.108 1.234.335.397.523.815.523 1.129.02.564.147.794.46 1.191.084.105.23.565.23.837h6.356v6.92c-.251 0-.523.062-.732.334.732.292 1.422.564 2.132.773.063-.438.147-.731.377-1.003 0 0-.92-.084-1.401-.125v-6.9H47.1a8.466 8.466 0 0 1-.502 2.74 7.996 7.996 0 0 1-1.4 2.425 6.668 6.668 0 0 1-2.05 1.63c-.124.043-.124.146-.25.188-.104.125-.21.334-.314.565a2.594 2.594 0 0 0-.125.627c.293.083.439.125.71.209 2.196.543 2.719.376 2.844.292v-.02a9.837 9.837 0 0 0 1.38-1.275c.878-.982 1.547-2.132 2.028-3.428.501-1.318.753-2.718.753-4.182 0-.25 0-.334-.02-.606m-9.617.48h-6.356c.02-.982.188-1.944.502-2.843a7.991 7.991 0 0 1 1.4-2.425 6.304 6.304 0 0 1 2.05-1.61c.773-.376 1.567-.585 2.403-.585zm.104-10.578c-2.111 0-3.575.627-4.411 1.192-.502-.293-.711-.565-.711-.92 0-1.192 3.387-1.296 5.122-1.296 1.714 0 5.122.104 5.122 1.296 0 .355-.209.627-.71.92-.837-.565-2.3-1.192-4.412-1.192m.272 10.579v-7.464c.773.043 1.526.23 2.237.585.773.377 1.463.92 2.049 1.61a7.998 7.998 0 0 1 1.4 2.425c.314.9.481 1.861.502 2.844zm21.198 15.428c-.043-.084-.146-.147-.23-.105-1.986.565-4.453-1.066-6.836-2.676-2.007-1.317-3.91-2.592-5.54-2.592-.586 0-1.13.125-1.59.376-.564.313-.982.815-1.253 1.463a8.374 8.374 0 0 1-.795 1.485c-.272.439-.48.752-.48 1.15 0 .313.146.606.417.899.23.23.565.438 1.046.71.104.043.188.084.292.147.397.188.649.313.69.543-.794.335-1.798.628-2.947.837-1.318.23-2.74.334-4.244.334-1.527 0-2.948-.104-4.244-.334-1.171-.21-2.175-.502-2.97-.837.044-.334.273-.46.712-.669.104-.062.209-.104.313-.167.397-.209.753-.397 1.004-.627.292-.25.418-.522.418-.836 0-.397-.188-.71-.48-1.15-.23-.355-.502-.815-.795-1.484a2.801 2.801 0 0 0-1.255-1.464c-.46-.25-1.003-.376-1.589-.376-1.63 0-3.512 1.276-5.519 2.614-2.404 1.588-4.871 3.22-6.857 2.655-.084-.043-.188.02-.21.104-.042.083 0 .188.105.23.586.272 1.129.69 1.652 1.087.71.544 1.38 1.087 2.132 1.087.71 0 1.464-.23 2.383-.71.795-.419 1.631-.983 2.426-1.527 1.568-1.087 3.198-2.195 4.745-2.32a3.059 3.059 0 0 1-.48.439c-.44.418-.837.773-.837 1.484 0 .564.189.962.46 1.505.084.167.167.355.251.565.188.376.251.669.355 1.108.044.167.084.376.147.627.104.355.292 1.045 1.421 1.61 1.297.669 3.555 1.003 6.711 1.003 3.136 0 5.394-.334 6.711-1.003 1.13-.565 1.296-1.255 1.401-1.61.062-.251.104-.46.167-.627a4.53 4.53 0 0 1 .334-1.108 7.4 7.4 0 0 1 .356-.711c.23-.439.418-.795.418-1.296 0-.732-.418-1.087-.879-1.527a3.35 3.35 0 0 1-.501-.46c1.547.126 3.178 1.234 4.746 2.321.794.544 1.63 1.108 2.425 1.527.94.48 1.693.71 2.404.71.732 0 1.422-.543 2.133-1.087.501-.397 1.045-.815 1.651-1.087a.21.21 0 0 0 .105-.23m-19.944-2.05c-.084 0-.189.02-.272.044v-1.694c-.753-.02-1.63-.146-2.488-.376v2.07a1.273 1.273 0 0 0-.292-.043.957.957 0 0 0-.962.962c0 .438.25.836.46 1.108.125-.272.23-.481.376-.481.292 0 .146 1.463 1.024 1.505-.043.062-.043.146-.043.23 0 .376.293.69.669.69a.678.678 0 0 0 .669-.69c0-.084 0-.167-.043-.23.878-.043.731-1.505 1.024-1.505.147 0 .23.188.376.48.21-.271.46-.668.46-1.107a.957.957 0 0 0-.962-.962m-1.526 3.7a.374.374 0 0 1-.376-.376c0-.209.167-.376.376-.376.21 0 .376.167.376.376 0 .21-.167.376-.376.376m2.028-2.132c-.104-.188-.25-.293-.397-.293-.564 0-.334 1.526-1.024 1.526-.314 0-.46-.188-.46-.418 0-.209.146-.271.146-.438 0-.189-.146-.251-.292-.251s-.293.062-.293.25c0 .168.167.23.167.44 0 .23-.167.417-.48.417-.69 0-.46-1.526-1.025-1.526-.146 0-.292.105-.397.293a1.48 1.48 0 0 1-.167-.606c0-.272.21-.67.67-.67.773 0 .585 1.067.96 1.067.168 0 .273-.105.273-.251 0-.314-.523-.606-.523-1.024 0-.418.376-.795.815-1.15.439.355.816.731.816 1.15 0 .418-.523.71-.523 1.024 0 .146.104.25.272.25.376 0 .188-1.065.961-1.065.46 0 .67.397.67.669 0 .167-.063.397-.167.606m.399-5.75c-1.422-.355-3.115-.961-4.683-1.693.043-.334-.084-.69-.335-.962-.23-.271-.564-.438-.878-.438-.146 0-.292.02-.439.083a9.792 9.792 0 0 1-.648-.669 7.753 7.753 0 0 1-1.4-2.425 8.215 8.215 0 0 1-.397-1.61c-.084.46-.607 1.066-1.485 1.087 0-.104 0-.334-.083-.355-.23.272-.586.544-1.38.25.125.628.293 1.255.522 1.84.481 1.297 1.15 2.447 2.028 3.43a9.3 9.3 0 0 0 .92.898c-.02.063-.02.125-.02.188 0 .335.334.858.795 1.088.376.188.773.146 1.15-.126.69.356 1.567.711 2.508.962 1.066.293 2.09.46 2.885.46.69 0 1.61-.314 2.509-.878a5.281 5.281 0 0 0 1.045-.815c-.69.104-1.756-.105-2.613-.314m-5.206-2.132-.146-.126c-.272-.188-.502-.188-.753.02-.104.105-.23.23-.313.335l-.167.188.104.084c.293.23.334.48.25.627-.042.062-.083.104-.145.125-.147.02-.356-.02-.565-.147l-.104-.062-.063.104c-.02.043-.043.063-.062.084-.02.043-.043.062-.062.104-.126.23-.189.397-.189.523v.104c.044.167.189.251.293.293l.062.063c.147.083.314.187.46.25a.789.789 0 0 1-.773.043c-.376-.187-.648-.627-.648-.857 0-.334.167-.752.438-1.191l.044-.063-.044-.083a3.543 3.543 0 0 1-.209-.377c.167.02.314.043.44.084h.083l.043-.043c.188-.188.773-.794 1.338-.794.25 0 .501.125.69.355.146.167.23.355.25.543-.062-.062-.166-.125-.25-.188m.92 2.697a.607.607 0 1 1 0-1.214.607.607 0 0 1 0 1.214m2.655.815a.554.554 0 1 1 .02-1.107.554.554 0 0 1-.02 1.107m-.045-32.34c-.314-.252-.564-.607-.606-1.004.376.083.773.334 1.024.669V.46a1.843 1.843 0 0 1-1.024.669c.043-.397.272-.732.585-1.13h-1.505c.335.398.564.733.606 1.13-.376-.084-.794-.335-1.024-.67v1.569c.23-.335.648-.586 1.024-.67a1.573 1.573 0 0 1-.627 1.004zm-2.153 1.88a1.43 1.43 0 0 0 1.38 1.109c.69 0 1.254-.481 1.38-1.108zm1.672-.543h1.108a1.429 1.429 0 0 0-1.108-1.15zm-.585 0V2.55c-.564.105-1.004.565-1.108 1.15zm1.066 2.112a1.288 1.288 0 0 1-.501.167v1.923h.501zm-1.526 2.09h.502V5.979a1.281 1.281 0 0 1-.502-.167zm1.63-2.425c0 .251.21.44.46.44.251 0 .44-.19.44-.44s-.188-.46-.44-.46c-.25 0-.46.21-.46.46m1.506-.042c.25 0 .46-.209.46-.46 0-.25-.21-.438-.46-.438a.429.429 0 0 0-.439.439c0 .25.188.46.439.46m1.108-.335c.25 0 .46-.21.46-.439 0-.25-.21-.46-.46-.46-.23 0-.439.21-.439.46 0 .23.21.439.44.439m3.177 1.003c.25 0 .46-.187.46-.438s-.21-.46-.46-.46a.447.447 0 0 0-.44.46c0 .25.19.438.44.438m-.878-.773c.25 0 .46-.188.46-.439 0-.25-.21-.46-.46-.46-.23 0-.44.21-.44.46 0 .251.21.439.44.439m-1.108-.335c.25 0 .439-.209.439-.46a.441.441 0 0 0-.44-.438c-.25 0-.459.209-.459.439 0 .25.21.46.46.46m2.425 3.428c-.251 0-.46.21-.46.46s.21.439.46.439.439-.188.439-.44a.447.447 0 0 0-.44-.459m.21-1.087a.442.442 0 0 0-.439.439c0 .25.188.46.439.46.25 0 .46-.21.46-.46 0-.23-.21-.439-.46-.439m-.606-.648c0 .25.209.46.46.46.25 0 .438-.21.438-.46a.429.429 0 0 0-.439-.439c-.25 0-.46.188-.46.439m-8.027-.774c.25 0 .438-.209.438-.439 0-.25-.188-.46-.438-.46-.251 0-.46.21-.46.46 0 .23.209.44.46.44m-1.046-.482c.23 0 .44-.209.44-.46 0-.25-.21-.438-.44-.438-.25 0-.46.188-.46.439 0 .25.21.46.46.46m-1.129-.335c.251 0 .46-.21.46-.439 0-.25-.21-.46-.46-.46s-.439.21-.439.46c0 .23.188.439.44.439m-3.178 1.003c.25 0 .46-.187.46-.438s-.21-.46-.46-.46a.447.447 0 0 0-.44.46c0 .25.189.438.44.438m.878-.773c.25 0 .46-.188.46-.439 0-.25-.21-.46-.46-.46-.251 0-.44.21-.44.46a.43.43 0 0 0 .44.439m1.129-.335c.25 0 .438-.209.438-.46a.441.441 0 0 0-.438-.438c-.251 0-.46.209-.46.439 0 .25.209.46.46.46m-1.987 3.888c0-.25-.188-.46-.438-.46-.251 0-.46.21-.46.46s.209.439.46.439c.25 0 .438-.188.438-.439m-.209-1.087a.45.45 0 0 0-.46-.46c-.25 0-.438.188-.438.46 0 .25.188.439.439.439.25 0 .46-.188.46-.44m-.293-.647c.25 0 .439-.21.439-.46a.429.429 0 0 0-.44-.439c-.25 0-.46.188-.46.439 0 .25.21.46.46.46m10.496.272c.25.501.48.794.46 1.17-.044.397-.44.67-.649 1.046-.167-.44-.46-.774-.418-1.13.044-.355.523-.815.607-1.086m-6.67 0c-.25.501-.48.794-.438 1.17.02.397.439.67.627 1.046.167-.44.46-.774.418-1.13-.02-.355-.523-.815-.606-1.086m294.026 100.099c.104 2.404 2.237 3.178 4.432 3.178 1.693 0 3.972-.376 3.972-2.446 0-4.244-10.746-1.38-10.746-7.715 0-3.303 3.24-4.683 6.147-4.683 3.68 0 6.48 1.15 6.731 5.164h-2.697c-.168-2.09-2.07-2.76-3.825-2.76-1.61 0-3.492.44-3.492 2.091 0 1.923 2.865 2.3 5.373 2.864 2.718.606 5.373 1.526 5.373 4.683 0 3.952-3.659 5.185-7.003 5.185-3.68 0-6.795-1.505-6.962-5.561zm-6.795-4.62c-.168-2.572-2.049-4.642-4.746-4.642-2.801 0-4.557 2.091-4.725 4.642zm2.592 4.578c-.731 3.659-3.303 5.603-7.024 5.603-5.248 0-7.736-3.659-7.902-8.655 0-4.955 3.26-8.55 7.735-8.55 5.833 0 7.61 5.435 7.463 9.407h-12.335c-.084 2.864 1.527 5.415 5.123 5.415 2.258 0 3.805-1.046 4.265-3.22zm-20.132-11.227h2.718v16.454h-2.718zm2.718-2.968h-2.718v-3.303h2.718zm-8.133 2.968h3.282v2.384h-3.282v10.223c0 1.275.357 1.463 2.049 1.463h1.233v2.384h-2.07c-2.801 0-3.909-.565-3.909-3.596V98.636h-2.801v-2.384h2.801v-4.933h2.697zm-9.889 0h2.718v16.454h-2.718zm2.718-2.968h-2.718v-3.303h2.718zm-19.673 2.968h2.551v2.614h.064c1.15-2.05 2.948-3.01 5.352-3.01 4.328 0 5.644 2.487 5.644 6.02v10.83h-2.696v-11.143c0-2.028-1.275-3.304-3.345-3.304-3.283 0-4.871 2.196-4.871 5.143v9.304h-2.697zm-3.282 16.454h-2.55v-2.614h-.065c-1.15 2.028-2.968 2.99-5.351 2.99-4.328 0-5.666-2.488-5.666-6.021V96.252h2.697v11.143c0 2.028 1.275 3.304 3.345 3.304 3.282 0 4.871-2.196 4.871-5.164v-9.283h2.718zm-39.952-16.454h2.55v2.405h.065c1.254-1.861 2.99-2.802 5.331-2.802 2.028 0 3.847.774 4.516 2.802 1.108-1.777 3.01-2.802 5.143-2.802 3.282 0 5.477 1.38 5.477 4.788v12.063h-2.697v-10.789c0-2.049-.543-3.659-3.178-3.659-2.655 0-4.306 1.652-4.306 4.203v10.244h-2.698v-10.788c0-2.132-.668-3.659-3.093-3.659-3.178 0-4.39 2.927-4.39 4.203v10.244h-2.719zm-26.384 0h2.55v2.405h.065c1.233-1.861 2.99-2.802 5.31-2.802 2.049 0 3.868.774 4.516 2.802 1.129-1.777 3.031-2.802 5.164-2.802 3.282 0 5.477 1.38 5.477 4.788v12.063h-2.718v-10.789c0-2.049-.523-3.659-3.177-3.659-2.634 0-4.286 1.652-4.286 4.203v10.244h-2.718v-10.788c0-2.132-.669-3.659-3.073-3.659-3.199 0-4.412 2.927-4.412 4.203v10.244h-2.696zm-10.432 14.447c2.843 0 5.143-2.237 5.143-6.21 0-3.972-2.3-6.23-5.143-6.23-2.822 0-5.122 2.258-5.122 6.23 0 3.973 2.3 6.21 5.122 6.21m0-14.844c5.227 0 8.007 3.805 8.007 8.634 0 4.809-2.78 8.593-8.007 8.593-5.205 0-7.986-3.784-7.986-8.593 0-4.829 2.78-8.634 7.986-8.634m-12.94.962c-.67-3.22-3.2-4.83-6.377-4.83-5.415 0-7.694 4.454-7.694 9.2 0 5.184 2.28 9.512 7.736 9.512 3.93 0 6.292-2.802 6.543-6.565h3.032c-.607 5.707-4.077 9.115-9.826 9.115-7.046 0-10.516-5.226-10.516-11.854 0-6.606 3.763-11.958 10.767-11.958 4.745 0 8.676 2.55 9.345 7.38zm-34.956-2.028c0-1.317-.983-2.425-2.614-2.425-1.275 0-2.613.773-2.613 2.425 0 1.359 1.213 2.697 2.195 3.93 1.318-.857 3.032-1.965 3.032-3.93m-3.91 6.94c-2.132 1.172-3.951 2.447-3.951 5.123 0 2.279 2.133 3.847 4.327 3.847 2.07 0 3.722-1.046 4.83-2.718zm6.711 8.133c-1.359 2.133-3.951 3.22-6.439 3.22-6.126 0-7.087-4.349-7.087-6.21 0-3.532 2.425-5.351 5.31-6.877-1.275-1.777-2.509-3.053-2.509-5.331 0-2.467 1.82-4.683 5.122-4.683 2.844 0 5.499 1.547 5.499 4.64 0 2.74-2.07 4.621-4.265 5.896l4.118 4.997c.418-1.15.67-2.32.732-3.533h2.572c-.25 2.738-.565 3.533-1.526 5.603l4.431 5.122h-3.533zm-27.513-5.728c0-2.885-1.254-5.875-4.662-5.875-3.47 0-4.87 2.823-4.87 5.98 0 2.947 1.065 6.271 4.64 6.271 3.554 0 4.892-3.282 4.892-6.376m2.676 7.17c0 5.374-2.404 8.092-7.63 8.092-3.094 0-6.649-1.276-6.816-4.85h2.718c.084 1.944 2.509 2.675 4.265 2.675 3.533 0 4.934-2.55 4.934-6.23v-1.087h-.063c-.94 2.007-3.031 2.99-5.143 2.99-4.892 0-7.338-3.847-7.338-8.342 0-3.888 1.86-8.697 7.61-8.697 2.07 0 3.91.941 4.892 2.739h.043v-2.342h2.53zM93.617 96.252h2.53v2.614h.083c1.13-2.05 2.948-3.01 5.331-3.01 4.328 0 5.666 2.487 5.666 6.02v10.83h-2.697v-11.143c0-2.028-1.275-3.304-3.345-3.304-3.282 0-4.871 2.196-4.871 5.143v9.304h-2.697zm-6.02 0h2.696v16.454h-2.697zm2.696-2.968h-2.697v-3.303h2.697zm-16.37 14.237c.105 2.404 2.237 3.178 4.432 3.178 1.673 0 3.973-.377 3.973-2.446 0-4.244-10.767-1.38-10.767-7.715 0-3.303 3.261-4.683 6.146-4.683 3.7 0 6.502 1.15 6.753 5.164h-2.695c-.167-2.09-2.07-2.76-3.826-2.76-1.63 0-3.512.44-3.512 2.091 0 1.923 2.864 2.3 5.394 2.864 2.697.606 5.373 1.526 5.373 4.683 0 3.951-3.659 5.185-7.004 5.185-3.7 0-6.815-1.505-6.962-5.561zm-5.059 5.185h-2.55v-2.614h-.063c-1.15 2.028-2.969 2.99-5.352 2.99-4.327 0-5.665-2.488-5.665-6.021V96.252h2.717v11.143c0 2.028 1.276 3.304 3.345 3.304 3.262 0 4.872-2.196 4.872-5.164v-9.283h2.696zm-24-2.007c2.843 0 5.122-2.237 5.122-6.21 0-3.972-2.28-6.23-5.122-6.23-2.823 0-5.122 2.258-5.122 6.23 0 3.973 2.3 6.21 5.122 6.21m0-14.844c5.226 0 7.986 3.805 7.986 8.634 0 4.809-2.76 8.593-7.986 8.593-5.206 0-7.987-3.784-7.987-8.593 0-4.829 2.78-8.634 7.987-8.634m-28.83-5.874h3.01v9.763h11.98V89.98h3.01v22.726h-3.01v-10.412h-11.98v10.412h-3.01zm380.432-14.259h3.533v3.22c0 2.425-1.046 4.265-3.492 4.997v-1.59c1.401-.5 1.945-2.027 1.84-3.093h-1.881zM386.41 64.809c-3.659 0-5.038 3.157-5.038 6.21 0 3.219 1.463 6.23 5.205 6.23 3.68 0 4.934-3.136 4.934-6.356 0-3.094-1.61-6.084-5.101-6.084m-7.631-2.007h2.697v2.237h.064c.899-1.819 2.969-2.613 5.247-2.613 5.06 0 7.59 4.014 7.59 8.655 0 4.683-2.489 8.572-7.527 8.572-1.652 0-4.14-.648-5.31-2.593h-.064v8.51h-2.697zm-3.575 8.258c0 5.75-3.24 8.74-8.948 8.74-5.854 0-9.324-2.698-9.324-8.74V56.53h3.031v14.53c0 4.035 2.258 6.21 6.293 6.21 3.847 0 5.938-2.175 5.938-6.21V56.53h3.01zm-33.555-.355c0-2.906-1.254-5.896-4.662-5.896-3.47 0-4.871 2.844-4.871 5.98 0 2.968 1.087 6.271 4.641 6.271 3.554 0 4.892-3.261 4.892-6.355m2.676 7.15c0 5.394-2.404 8.09-7.63 8.09-3.095 0-6.649-1.275-6.816-4.829h2.718c.084 1.945 2.509 2.676 4.265 2.676 3.533 0 4.934-2.55 4.934-6.25v-1.067h-.064c-.941 1.986-3.032 2.99-5.143 2.99-4.892 0-7.338-3.868-7.338-8.342 0-3.889 1.881-8.697 7.61-8.697 2.07 0 3.909.92 4.892 2.739h.044v-2.363h2.53zm-31.13-15.053h2.552v2.614h.064c1.128-2.028 2.947-2.99 5.33-2.99 4.328 0 5.666 2.488 5.666 6.021v10.809h-2.697V68.112c0-2.027-1.275-3.303-3.345-3.303-3.282 0-4.871 2.195-4.871 5.164v9.283h-2.697zm-6.02 0h2.718v16.474h-2.718zm2.697-2.947h-2.697V56.53h2.697zm-8.78-3.304h2.696v22.725h-2.697zm-6.085 0h2.697v22.725h-2.697zm-5.142 12.9c-.17-2.572-2.05-4.642-4.746-4.642-2.802 0-4.558 2.112-4.725 4.641zm2.592 4.599c-.732 3.659-3.303 5.603-7.025 5.603-5.247 0-7.735-3.659-7.902-8.676 0-4.955 3.261-8.551 7.735-8.551 5.833 0 7.61 5.436 7.464 9.429h-12.335c-.084 2.864 1.526 5.394 5.122 5.394 2.258 0 3.805-1.046 4.265-3.2zm-21.136 5.206h-2.906l-6.105-16.454h3.031l4.6 13.736h.064l4.494-13.736h2.844zm-11.896-9.806c-.145-2.571-2.028-4.64-4.725-4.64-2.802 0-4.558 2.11-4.725 4.64zm2.613 4.6c-.731 3.659-3.303 5.603-7.024 5.603-5.248 0-7.736-3.659-7.903-8.676 0-4.955 3.261-8.551 7.735-8.551 5.833 0 7.61 5.436 7.443 9.429h-12.314c-.084 2.864 1.526 5.394 5.122 5.394 2.258 0 3.805-1.046 4.265-3.2zm-30.481-17.52h3.031v20.196h12.021v2.53h-15.052zm-19.36 6.272h2.551v3.47h.064c1.317-2.675 3.136-3.93 6.063-3.846v2.864c-4.37 0-5.958 2.446-5.958 6.648v7.318h-2.718zm-10.369 14.467c2.822 0 5.122-2.236 5.122-6.209 0-3.993-2.3-6.25-5.122-6.25-2.843 0-5.122 2.257-5.122 6.25 0 3.973 2.279 6.21 5.122 6.21m0-14.844c5.227 0 7.986 3.784 7.986 8.634 0 4.788-2.76 8.593-7.986 8.593-5.227 0-7.986-3.805-7.986-8.593 0-4.85 2.76-8.634 7.986-8.634m-14.362 2.76h-2.76v-2.384h2.76v-2.446c0-2.676 1.588-4.076 4.557-4.076.502 0 1.234.104 1.756.25v2.363c-.48-.167-1.066-.23-1.547-.23-1.296 0-2.07.418-2.07 1.86v2.28h3.199v2.383h-3.199v14.07h-2.696zm-15.597-2.384h3.283v2.384h-3.283v10.223c0 1.275.357 1.463 2.05 1.463h1.233v2.384h-2.07c-2.802 0-3.91-.565-3.91-3.596V65.186h-2.8v-2.384h2.8v-4.934h2.697zm-20.572 0h2.551v2.614h.064c1.15-2.028 2.969-2.99 5.352-2.99 4.328 0 5.666 2.488 5.666 6.021v10.809h-2.718V68.112c0-2.027-1.275-3.303-3.345-3.303-3.262 0-4.85 2.195-4.85 5.164v9.283h-2.718zm-5.08 6.648c-.168-2.571-2.049-4.64-4.745-4.64-2.802 0-4.558 2.11-4.704 4.64zm2.614 4.6c-.732 3.659-3.325 5.603-7.046 5.603-5.247 0-7.735-3.659-7.902-8.676 0-4.955 3.261-8.551 7.756-8.551 5.812 0 7.589 5.436 7.443 9.429h-12.314c-.104 2.864 1.526 5.394 5.122 5.394 2.258 0 3.784-1.046 4.265-3.2zm-40.433-11.248h2.55v2.425h.063c1.254-1.881 2.99-2.801 5.31-2.801 2.049 0 3.868.753 4.516 2.801 1.129-1.777 3.031-2.801 5.164-2.801 3.282 0 5.477 1.359 5.477 4.767v12.063h-2.697V68.467c0-2.028-.544-3.659-3.199-3.659-2.634 0-4.285 1.652-4.285 4.202v10.245h-2.718V68.467c0-2.133-.67-3.659-3.073-3.659-3.178 0-4.39 2.927-4.39 4.202v10.245h-2.719zm-5.29 0h3.283v2.384h-3.282v10.223c0 1.275.355 1.463 2.048 1.463h1.234v2.384h-2.07c-2.801 0-3.91-.565-3.91-3.596V65.186h-2.8v-2.384h2.8v-4.934h2.698zm-14.843 0h2.55v3.47h.063c1.296-2.675 3.115-3.93 6.063-3.846v2.864c-4.37 0-5.958 2.446-5.958 6.648v7.318h-2.718zm-6.21 7.966c-2.11 1.547-8.215.02-8.215 4.076 0 1.777 1.526 2.405 3.178 2.405 3.554 0 5.038-2.196 5.038-3.722zm4.391 8.425c-.48.292-1.15.46-1.944.46-1.4 0-2.3-.774-2.3-2.551-1.484 1.777-3.491 2.55-5.79 2.55-2.99 0-5.436-1.316-5.436-4.62 0-3.721 2.76-4.557 5.56-5.059 2.97-.606 5.54-.355 5.54-2.425 0-2.384-1.964-2.739-3.658-2.739-2.3 0-3.972.71-4.097 3.115h-2.718c.167-4.077 3.282-5.498 6.982-5.498 2.948 0 6.168.669 6.168 4.516v8.467c0 1.275 0 1.84.857 1.84.25 0 .544-.063.836-.147zm-24.92-14.384c-3.659 0-5.018 3.157-5.018 6.21 0 3.219 1.464 6.23 5.185 6.23 3.7 0 4.934-3.136 4.934-6.356 0-3.094-1.589-6.084-5.101-6.084m-7.63-2.007h2.696v2.237h.062c.9-1.819 2.97-2.613 5.248-2.613 5.08 0 7.589 4.014 7.589 8.655 0 4.683-2.488 8.572-7.526 8.572-1.652 0-4.119-.648-5.31-2.593h-.063v8.51h-2.697zm-5.144 6.648c-.146-2.571-2.028-4.64-4.746-4.64-2.801 0-4.536 2.11-4.703 4.64zm2.613 4.6c-.731 3.659-3.303 5.603-7.024 5.603-5.268 0-7.735-3.659-7.903-8.676 0-4.955 3.24-8.551 7.736-8.551 5.833 0 7.61 5.436 7.442 9.429H39.305c-.084 2.864 1.526 5.394 5.122 5.394 2.257 0 3.784-1.046 4.264-3.2zm-32.32 2.676h5.038c2.07 0 7.63-.585 7.63-8.948 0-5.415-2.006-8.697-7.568-8.697h-5.1zM16.034 56.53h7.798c7.004 0 10.913 3.534 10.913 10.83 0 7.61-3.345 11.896-10.913 11.896h-7.798z"/>
</svg>
